<?xml version="1.0" encoding="utf-8"?>
<svg version="1.1" id="Logo_quer_ohne_Rand_gross" xmlns="http://www.w3.org/2000/svg" xmlns:xlink="http://www.w3.org/1999/xlink"
	 x="0px" y="0px" viewBox="0 0 382.7 56.7" style="enable-background:new 0 0 382.7 56.7;" xml:space="preserve">
<style type="text/css">
	.st0{fill:#7E7D7E;}
	.st1{fill:#E4457D;stroke:#FFFFFF;stroke-width:0.71;stroke-miterlimit:10;}
	.st2{fill:#2BB7E0;stroke:#FFFFFF;stroke-width:0.71;stroke-miterlimit:10;}
	.st3{fill:#6EC829;stroke:#FFFFFF;stroke-width:0.71;stroke-miterlimit:10;}
	.st4{fill:#FFC600;stroke:#FFFFFF;stroke-width:0.71;stroke-miterlimit:10;}
	.st5{fill:#FF6C2C;stroke:#FFFFFF;stroke-width:0.71;stroke-miterlimit:10;}
</style>
<title>42talents Logo Big 7</title>
<path class="st0" d="M92,17.8h10.1v28.8h8V17.8h10.1V11H92V17.8L92,17.8z M141.6,11l-15.4,35.6h8.5l3.3-7.7h14.9l3.3,7.7h8.5
	L149.3,11H141.6z M141,31.9l4.5-10.4l4.4,10.4H141z M184.3,11h-7.9v35.6h23.1v-7.1h-15.2V11z M222.1,32.2h16v-6.8h-16V18h17.7v-7
	h-25.7v35.6h26.2v-7h-18.3V32.2L222.1,32.2z M281.3,33.9L263.9,11h-7.4v35.6h8V24.3l17,22.3h8V11h-8L281.3,33.9L281.3,33.9z
	 M302.5,17.9h10.1v28.7h8V17.8h10.1V11h-28.2L302.5,17.9L302.5,17.9z M367.4,29c-2.3-1.9-5-3.2-7.9-3.8c-3.4-0.8-5.6-1.6-6.5-2.2
	c-0.9-0.5-1.4-1.5-1.4-2.5c0-1,0.4-1.9,1.1-2.5c0.9-0.7,2-1,3.1-0.9c3.5,0.1,6.9,1.3,9.6,3.5l4-5.8c-1.8-1.5-3.9-2.7-6.2-3.5
	c-2.3-0.8-4.7-1.2-7.1-1.2c-3.3-0.1-6.5,0.8-9.1,2.8c-2.4,1.8-3.8,4.8-3.6,7.8c0,3.4,1,5.9,2.9,7.4c1.9,1.6,5,2.9,9.1,3.9
	c1.8,0.3,3.6,1,5.2,1.9c0.9,0.6,1.4,1.6,1.4,2.6c0,1-0.4,1.9-1.3,2.5c-1,0.7-2.2,1-3.4,0.9c-3.3,0-6.8-1.7-10.7-5l-4.7,5.8
	c4.1,4,9.5,6.2,15.2,6.2c3.4,0.2,6.8-0.9,9.5-3c2.4-1.9,3.7-4.8,3.6-7.8C370.2,33,369.3,30.6,367.4,29z"/>
<rect x="12.2" y="11.3" class="st1" width="7.1" height="7.1"/>
<rect x="12.2" y="18.4" class="st2" width="7.1" height="7.1"/>
<rect x="12.2" y="25.5" class="st3" width="7.1" height="7.1"/>
<rect x="19.3" y="25.5" class="st4" width="7.1" height="7.1"/>
<rect x="26.4" y="25.5" class="st5" width="7.1" height="7.1"/>
<rect x="33.5" y="25.5" class="st1" width="7.1" height="7.1"/>
<rect x="33.5" y="32.6" class="st5" width="7.1" height="7.1"/>
<rect x="33.5" y="39.7" class="st4" width="7.1" height="7.1"/>
<rect x="33.5" y="18.4" class="st2" width="7.1" height="7.1"/>
<rect x="33.5" y="11.3" class="st3" width="7.1" height="7.1"/>
<rect x="47.7" y="11.3" class="st2" width="7.1" height="7.1"/>
<rect x="54.7" y="11.3" class="st1" width="7.1" height="7.1"/>
<rect x="61.8" y="11.3" class="st5" width="7.1" height="7.1"/>
<rect x="68.9" y="11.3" class="st4" width="7.1" height="7.1"/>
<rect x="68.9" y="18.4" class="st3" width="7.1" height="7.1"/>
<rect x="68.9" y="25.5" class="st2" width="7.1" height="7.1"/>
<rect x="61.8" y="25.5" class="st1" width="7.1" height="7.1"/>
<rect x="54.7" y="25.5" class="st5" width="7.1" height="7.1"/>
<rect x="47.7" y="25.5" class="st4" width="7.1" height="7.1"/>
<rect x="47.7" y="32.6" class="st3" width="7.1" height="7.1"/>
<rect x="47.7" y="39.7" class="st2" width="7.1" height="7.1"/>
<rect x="54.7" y="39.7" class="st1" width="7.1" height="7.1"/>
<rect x="61.8" y="39.7" class="st5" width="7.1" height="7.1"/>
<rect x="68.9" y="39.7" class="st4" width="7.1" height="7.1"/>
</svg>
