<?xml version="1.0" encoding="UTF-8"?>
<!-- Generator: Adobe Illustrator 23.1.1, SVG Export Plug-In . SVG Version: 6.00 Build 0)  -->
<svg version="1.1" id="Ebene_1" xmlns="http://www.w3.org/2000/svg" xmlns:xlink="http://www.w3.org/1999/xlink" x="0px" y="0px" viewBox="0 0 177 40" style="enable-background:new 0 0 177 40;" xml:space="preserve">
<style type="text/css">
	.st0{fill:#282828;}
	.st1{fill:#DE323C;}
</style>
<g>
	<path class="st0" d="M125.6,26.7c1-0.6,1.7-1.1,2.3-1.8l2.4,2.4c-0.4,0.5-0.8,0.9-1.4,1.3c-0.6,0.4-1.2,0.8-1.9,1.2   c-0.7,0.3-1.5,0.6-2.3,0.8c-0.8,0.2-1.7,0.3-2.6,0.3c-1.5,0-3-0.3-4.2-0.8c-1.3-0.6-2.4-1.3-3.4-2.3c-1-1-1.7-2.1-2.3-3.5   c-0.6-1.3-0.8-2.8-0.8-4.4s0.3-3,0.8-4.4c0.6-1.3,1.3-2.5,2.3-3.5c1-1,2.1-1.7,3.4-2.3c1.3-0.6,2.7-0.8,4.2-0.8   c1,0,1.8,0.1,2.6,0.3c0.8,0.2,1.5,0.5,2.2,0.8c0.7,0.3,1.2,0.7,1.7,1c0.5,0.4,0.9,0.8,1.2,1.2l-2.4,2.4c-0.5-0.6-1.2-1.1-2.1-1.6   s-2-0.8-3.2-0.8c-1,0-2,0.2-2.8,0.6c-0.9,0.4-1.6,1-2.2,1.7c-0.6,0.7-1.1,1.5-1.5,2.4c-0.3,0.9-0.5,1.9-0.5,2.9s0.1,2,0.5,2.9   c0.3,0.9,0.8,1.7,1.5,2.4c0.6,0.7,1.4,1.2,2.2,1.7c0.9,0.4,1.8,0.6,2.8,0.6C123.5,27.5,124.7,27.3,125.6,26.7z"/>
	<path class="st0" d="M173.1,23.8c-0.2-0.3-0.5-0.6-0.8-0.8c-0.3-0.2-0.8-0.5-1.2-0.6c-0.5-0.2-1-0.4-1.5-0.6   c-0.8-0.3-1.5-0.6-2.4-1c-0.8-0.3-1.5-0.8-2.1-1.3c-0.6-0.5-1.2-1.1-1.5-1.8c-0.4-0.7-0.6-1.5-0.6-2.4c0-0.8,0.1-1.6,0.5-2.4   c0.3-0.8,0.8-1.4,1.4-1.9c0.6-0.6,1.3-1,2.1-1.4c0.8-0.3,1.8-0.5,2.8-0.5c0.8,0,1.6,0.1,2.3,0.3c0.7,0.2,1.3,0.5,1.9,0.8   c0.6,0.3,1.1,0.7,1.5,1.1c0.5,0.4,0.8,0.8,1.2,1.2l-2.5,2.5c-0.3-0.3-0.5-0.6-0.8-0.9c-0.3-0.3-0.6-0.6-1-0.8   c-0.4-0.2-0.8-0.4-1.2-0.6c-0.4-0.1-0.9-0.2-1.4-0.2c-0.9,0-1.7,0.2-2.3,0.7c-0.6,0.5-0.9,1.1-0.9,1.9c0,0.5,0.1,0.9,0.4,1.2   c0.3,0.3,0.6,0.6,1,0.9c0.4,0.3,0.9,0.5,1.5,0.7l1.7,0.6c0.8,0.3,1.5,0.6,2.2,1s1.3,0.8,1.9,1.2c0.6,0.5,1,1,1.3,1.7   c0.3,0.7,0.5,1.5,0.5,2.4c0,1-0.2,1.9-0.6,2.6c-0.4,0.8-0.9,1.4-1.6,1.9s-1.5,0.9-2.3,1.1c-0.9,0.3-1.8,0.3-2.8,0.3   c-1,0-1.9-0.1-2.7-0.3c-0.8-0.3-1.5-0.6-2.2-1c-0.6-0.4-1.2-0.9-1.7-1.4c-0.5-0.6-0.9-1-1.2-1.6l2.7-2.3c0.2,0.4,0.6,0.8,0.8,1.1   c0.3,0.3,0.7,0.7,1.1,1c0.4,0.3,0.9,0.6,1.5,0.8c0.6,0.2,1.1,0.3,1.7,0.3c0.4,0,0.8-0.1,1.2-0.1c0.4-0.1,0.8-0.2,1.1-0.4   c0.3-0.2,0.6-0.5,0.8-0.8s0.3-0.8,0.3-1.2C173.4,24.4,173.3,24.1,173.1,23.8z"/>
	<path class="st0" d="M154.7,9.4v13.5c0,1.2-0.2,2.2-0.6,3.2c-0.4,1-0.9,1.8-1.7,2.6c-0.7,0.7-1.6,1.2-2.6,1.7   c-1,0.4-2.1,0.6-3.4,0.6c-1.2,0-2.4-0.2-3.4-0.6c-1-0.4-1.9-1-2.6-1.7c-0.7-0.7-1.2-1.6-1.7-2.6c-0.4-1-0.6-2.1-0.6-3.2V9.4h3.6v13   c0,1.5,0.3,2.7,1.1,3.7c0.8,0.9,1.9,1.4,3.4,1.4s2.6-0.5,3.4-1.4c0.8-0.9,1.1-2.1,1.1-3.7v-13H154.7z"/>
	<polygon class="st0" points="47.2,8.7 37.1,30.5 40.8,30.5 47.2,16.6 53.5,30.5 57.2,30.5  "/>
	<polygon class="st0" points="96,8.7 86,30.5 89.6,30.5 96,16.6 102.3,30.5 106,30.5  "/>
	<path class="st0" d="M79.1,21.9c-0.3-0.6-0.7-1.1-1-1.5c-0.4-0.4-0.8-0.6-1.1-0.8c-0.3-0.1-0.6-0.3-0.6-0.3   c0.1-0.1,0.3-0.2,0.6-0.3c0.2-0.1,0.5-0.4,0.8-0.8c0.3-0.3,0.5-0.8,0.6-1.2c0.2-0.5,0.3-1.1,0.3-1.9c0-1-0.2-1.9-0.6-2.6   c-0.4-0.7-0.9-1.3-1.5-1.8c-0.6-0.5-1.3-0.8-2.1-1c-0.8-0.2-1.7-0.3-2.5-0.3H65v21.1h7.6c1,0,1.9-0.1,2.8-0.5   c0.9-0.3,1.6-0.7,2.2-1.2s1.1-1.2,1.5-2c0.3-0.8,0.6-1.7,0.6-2.6C79.5,23.3,79.4,22.6,79.1,21.9z M75,26.8   c-0.7,0.5-1.6,0.7-2.6,0.7h-4.1V12.4h3.3c1,0,1.7,0.2,2.4,0.6c0.6,0.4,1,1.2,1,2.2c0,1.2-0.3,1.8-1,2.2c-0.6,0.4-1.3,0.6-2.4,0.6   l0.7,3.2c1,0,1.9,0.3,2.7,0.8c0.7,0.5,1,1.2,1,2.3C76.1,25.5,75.7,26.4,75,26.8z"/>
	<g>
		<path class="st1" d="M8.4,12.2c-0.5-0.5-1.3-0.5-1.8,0c-0.5,0.5-0.5,1.3,0,1.8c0.5,0.5,1.3,0.5,1.8,0C8.9,13.5,8.9,12.7,8.4,12.2z    "/>
		<path class="st1" d="M11.8,15.6c-0.5-0.5-1.3-0.5-1.8,0c-0.5,0.5-0.5,1.3,0,1.8c0.5,0.5,1.3,0.5,1.8,0    C12.4,16.9,12.4,16.1,11.8,15.6z"/>
		<path class="st1" d="M12,8.5c-0.6-0.6-1.6-0.6-2.2,0c-0.6,0.6-0.6,1.6,0,2.2c0.6,0.6,1.6,0.6,2.2,0C12.6,10.1,12.6,9.1,12,8.5z"/>
		<path class="st1" d="M15.5,12c-0.6-0.6-1.6-0.6-2.2,0c-0.6,0.6-0.6,1.6,0,2.2c0.6,0.6,1.6,0.6,2.2,0C16,13.6,16,12.5,15.5,12z"/>
		<path class="st1" d="M18.9,15.4c-0.6-0.6-1.6-0.6-2.2,0C16,16,16,17,16.6,17.6c0.6,0.6,1.6,0.6,2.2,0C19.5,17,19.5,16,18.9,15.4z"/>
		<path class="st1" d="M23.3,22c-0.7,0.7-0.7,1.9,0,2.6c0.7,0.7,1.9,0.7,2.6,0c0.7-0.7,0.7-1.9,0-2.6C25.1,21.3,24,21.3,23.3,22z"/>
		<path class="st1" d="M19.9,25.5c-0.7,0.7-0.7,1.9,0,2.6c0.7,0.7,1.9,0.7,2.6,0c0.7-0.7,0.7-1.9,0-2.6    C21.8,24.7,20.6,24.7,19.9,25.5z"/>
		<path class="st1" d="M16.4,28.8c-0.7,0.7-0.7,1.9,0,2.6c0.7,0.7,1.9,0.7,2.6,0c0.7-0.7,0.7-1.9,0-2.6    C18.3,28.2,17.2,28.2,16.4,28.8z"/>
		<path class="st1" d="M13,32.3c-0.7,0.7-0.7,1.9,0,2.6c0.7,0.7,1.9,0.7,2.6,0s0.7-1.9,0-2.6C14.9,31.5,13.7,31.5,13,32.3z"/>
		<path class="st1" d="M29.3,18.7c-0.7-0.7-1.9-0.7-2.6,0c-0.7,0.7-0.7,1.9,0,2.6c0.7,0.7,1.9,0.7,2.6,0C30,20.6,30,19.4,29.3,18.7z    "/>
		<path class="st1" d="M25.8,15.3c-0.7-0.7-1.9-0.7-2.6,0c-0.7,0.7-0.7,1.9,0,2.6c0.7,0.7,1.9,0.7,2.6,0    C26.6,17.2,26.6,16,25.8,15.3z"/>
		<path class="st1" d="M22.4,11.8c-0.7-0.7-1.9-0.7-2.6,0s-0.7,1.9,0,2.6c0.7,0.7,1.9,0.7,2.6,0C23.1,13.7,23.1,12.6,22.4,11.8z"/>
		<path class="st1" d="M19,8.5c-0.7-0.7-1.9-0.7-2.6,0c-0.7,0.7-0.7,1.9,0,2.6c0.7,0.7,1.9,0.7,2.6,0C19.8,10.3,19.8,9.1,19,8.5z"/>
		<path class="st1" d="M15.6,5c-0.7-0.7-1.9-0.7-2.6,0c-0.7,0.7-0.7,1.9,0,2.6c0.7,0.7,1.9,0.7,2.6,0S16.3,5.8,15.6,5z"/>
		<path class="st1" d="M9.8,29.1c-0.6,0.6-0.6,1.6,0,2.2c0.6,0.6,1.6,0.6,2.2,0c0.6-0.6,0.6-1.6,0-2.2C11.4,28.5,10.4,28.5,9.8,29.1    z"/>
		<path class="st1" d="M6.6,25.8c-0.5,0.5-0.5,1.3,0,1.8s1.3,0.5,1.8,0c0.5-0.5,0.5-1.3,0-1.8C7.9,25.3,7.1,25.3,6.6,25.8z"/>
		<path class="st1" d="M10,22.4c-0.5,0.5-0.5,1.3,0,1.8s1.3,0.5,1.8,0c0.5-0.5,0.5-1.3,0-1.8C11.3,21.9,10.5,21.9,10,22.4z"/>
		<path class="st1" d="M13.4,19c-0.5,0.5-0.5,1.3,0,1.8c0.5,0.5,1.3,0.5,1.8,0c0.5-0.5,0.5-1.3,0-1.8C14.7,18.5,13.9,18.5,13.4,19z"/>
		<path class="st1" d="M6.8,19.1c-0.4,0.4-0.4,1,0,1.5s1,0.4,1.5,0c0.4-0.4,0.4-1,0-1.5C7.9,18.8,7.2,18.8,6.8,19.1z"/>
		<path class="st1" d="M3.4,22.5c-0.4,0.4-0.4,1,0,1.5s1,0.4,1.5,0c0.4-0.4,0.4-1,0-1.5C4.3,22.1,3.7,22.1,3.4,22.5z"/>
		<path class="st1" d="M3.6,15.9c-0.4,0.4-0.4,1,0,1.5c0.4,0.4,1,0.4,1.5,0c0.4-0.4,0.4-1,0-1.5S4,15.5,3.6,15.9z"/>
		<path class="st1" d="M0.3,19.2c-0.3,0.3-0.3,0.9,0,1.2s0.9,0.3,1.2,0s0.3-0.9,0-1.2S0.6,18.9,0.3,19.2z"/>
		<path class="st1" d="M13.2,25.6c-0.6,0.6-0.6,1.6,0,2.2c0.6,0.6,1.6,0.6,2.2,0c0.6-0.6,0.6-1.6,0-2.2C14.8,25,13.8,25,13.2,25.6z"/>
		<path class="st1" d="M16.6,22.2c-0.6,0.6-0.6,1.6,0,2.2c0.6,0.6,1.6,0.6,2.2,0c0.6-0.6,0.6-1.6,0-2.2    C18.2,21.6,17.2,21.6,16.6,22.2z"/>
		<path class="st1" d="M20,18.8c-0.6,0.6-0.6,1.6,0,2.2c0.6,0.6,1.6,0.6,2.2,0c0.6-0.6,0.6-1.6,0-2.2C21.6,18.2,20.6,18.2,20,18.8z"/>
	</g>
</g>
</svg>