<?xml version="1.0" encoding="UTF-8"?><svg id="a" xmlns="http://www.w3.org/2000/svg" viewBox="0 0 405.674 63.685"><path d="m388.162,16.138c10.599,0,17.512,7.384,17.512,18.64v27.645h-13.825v-26.475c0-4.502-2.212-7.384-6.636-7.384-4.609,0-7.19,3.152-7.19,8.465v25.394h-13.825v-26.475c0-4.502-2.212-7.384-6.636-7.384-4.609,0-7.189,3.152-7.189,8.465v25.394h-13.826V17.399h13.826v4.142c2.119-3.062,6.175-5.403,12.35-5.403,5.438,0,9.494,2.161,12.074,5.943,2.581-3.602,6.821-5.943,13.365-5.943Z" style="stroke-width:0px;"/><path d="m311.661,17.399h13.825v45.025h-13.825v-4.232c-2.489,3.332-7.097,5.493-13.18,5.493-9.309,0-17.236-6.484-17.236-18.64v-27.645h13.825v25.664c0,5.583,3.595,8.195,8.019,8.195,5.07,0,8.572-2.882,8.572-9.275v-24.584Z" style="stroke-width:0px;"/><path d="m223.542,0l13.825,4.916v16.715c3.042-3.422,7.558-5.493,13.734-5.493,12.074,0,22.028,10.356,22.028,23.773s-9.954,23.773-22.028,23.773c-6.176,0-10.692-2.071-13.734-5.493v4.232h-13.825V0Zm35.762,39.912c0,6.754-4.609,10.986-10.968,10.986s-10.969-4.232-10.969-10.986,4.609-10.986,10.969-10.986,10.968,4.232,10.968,10.986Z" style="fill-rule:evenodd; stroke-width:0px;"/><path d="m198.656,17.399h13.826v45.025h-13.826v-4.232c-2.488,3.332-7.097,5.493-13.18,5.493-9.309,0-17.235-6.484-17.235-18.64v-27.645h13.825v25.664c0,5.583,3.594,8.195,8.019,8.195,5.069,0,8.571-2.882,8.571-9.275v-24.584Z" style="stroke-width:0px;"/><path d="m141.12,63.684c-14.01,0-24.425-10.356-24.425-23.773s10.415-23.773,24.425-23.773c8.94,0,16.867,4.593,20.83,11.526l-12.074,6.844c-1.567-3.152-4.885-5.043-8.94-5.043-5.991,0-10.416,4.232-10.416,10.446s4.425,10.446,10.416,10.446c4.055,0,7.465-1.891,8.94-5.043l12.074,6.754c-3.963,7.024-11.798,11.616-20.83,11.616Z" style="stroke-width:0px;"/><path d="m94.11,4.93v16.7c-3.042-3.422-7.558-5.493-13.733-5.493-12.074,0-22.028,10.356-22.028,23.773s9.954,23.773,22.028,23.773c6.175,0,10.692-2.071,13.733-5.493v4.232h13.825V0l-13.825,4.929Zm0,34.98c0,6.754-4.608,10.986-10.968,10.986s-10.968-4.232-10.968-10.986,4.608-10.986,10.968-10.986,10.968,4.232,10.968,10.986Z" style="fill-rule:evenodd; stroke-width:0px;"/><path d="m35.762,17.399h13.825v45.025h-13.825v-4.232c-3.042,3.422-7.558,5.493-13.733,5.493C9.954,63.684,0,53.329,0,39.911s9.954-23.773,22.028-23.773c6.175,0,10.692,2.071,13.733,5.493v-4.232Zm-10.968,33.499c6.36,0,10.968-4.232,10.968-10.986s-4.608-10.986-10.968-10.986-10.968,4.232-10.968,10.986,4.609,10.986,10.968,10.986Z" style="stroke-width:0px;"/></svg>