<?xml version="1.0" encoding="UTF-8" standalone="no"?>
<svg
   xmlns:dc="http://purl.org/dc/elements/1.1/"
   xmlns:cc="http://creativecommons.org/ns#"
   xmlns:rdf="http://www.w3.org/1999/02/22-rdf-syntax-ns#"
   xmlns:svg="http://www.w3.org/2000/svg"
   xmlns="http://www.w3.org/2000/svg"
   xmlns:sodipodi="http://sodipodi.sourceforge.net/DTD/sodipodi-0.dtd"
   xmlns:inkscape="http://www.inkscape.org/namespaces/inkscape"
   version="1.1"
   id="svg2"
   xml:space="preserve"
   width="377.95334"
   height="209.82401"
   viewBox="0 0 377.95334 209.82401"
   sodipodi:docname="ADN_Logo_pos_RGB.ai"><metadata
     id="metadata8"><rdf:RDF><cc:Work
         rdf:about=""><dc:format>image/svg+xml</dc:format><dc:type
           rdf:resource="http://purl.org/dc/dcmitype/StillImage" /></cc:Work></rdf:RDF></metadata><defs
     id="defs6"><clipPath
       clipPathUnits="userSpaceOnUse"
       id="clipPath18"><path
         d="M 0,157.368 H 283.465 V 0 H 0 Z"
         id="path16" /></clipPath></defs><sodipodi:namedview
     pagecolor="#ffffff"
     bordercolor="#666666"
     borderopacity="1"
     objecttolerance="10"
     gridtolerance="10"
     guidetolerance="10"
     inkscape:pageopacity="0"
     inkscape:pageshadow="2"
     inkscape:window-width="640"
     inkscape:window-height="480"
     id="namedview4" /><g
     id="g10"
     inkscape:groupmode="layer"
     inkscape:label="ADN_Logo_pos_RGB"
     transform="matrix(1.3333333,0,0,-1.3333333,0,209.824)"><g
       id="g12"><g
         id="g14"
         clip-path="url(#clipPath18)"><g
           id="g20"
           transform="translate(22.3242,14.3979)"><path
             d="m 0,0 c -0.045,-2.333 -0.771,-4.193 -2.18,-5.58 -1.408,-1.388 -3.323,-2.081 -5.745,-2.081 -1.542,0 -2.764,0.353 -3.665,1.058 -0.904,0.704 -1.355,1.651 -1.355,2.84 0,1.407 0.539,2.498 1.619,3.268 1.078,0.77 2.586,1.156 4.523,1.156 L 0,0.661 Z M 9.709,-5.68 C 9.355,-5.372 9.182,-4.799 9.182,-3.962 V 7.992 c 0,4.007 -1.312,7.067 -3.932,9.181 -2.619,2.113 -6.329,3.168 -11.128,3.168 -4.58,0 -8.256,-0.955 -11.03,-2.87 -2.172,-1.502 -3.577,-3.489 -4.237,-5.949 l 8.216,-2.237 c 0.96,2.005 2.251,4.255 6.589,4.255 1.936,0 3.478,-0.451 4.622,-1.353 C -0.572,11.283 0,10.062 0,8.521 V 6.87 h -6.736 c -5.064,0 -8.928,-0.982 -11.592,-2.939 -2.664,-1.961 -3.996,-4.747 -3.996,-8.355 0,-3.171 1.156,-5.624 3.469,-7.365 2.312,-1.739 5.36,-2.609 9.146,-2.609 2.553,0 4.733,0.506 6.539,1.52 1.805,1.012 3.323,2.487 4.558,4.425 C 1.299,-12.152 3.389,-14 7.66,-14 h 4.757 v 7.858 h -1.058 c -0.748,0 -1.298,0.155 -1.65,0.462"
             style="fill:#003246;fill-opacity:1;fill-rule:nonzero;stroke:none"
             id="path22" /></g><g
           id="g24"
           transform="translate(60.8945,10.271)"><path
             d="m 0,0 c -1.499,-1.783 -3.502,-2.675 -6.011,-2.675 -2.509,0 -4.523,0.902 -6.043,2.708 -1.519,1.805 -2.279,4.16 -2.279,7.067 0,2.906 0.76,5.261 2.279,7.067 1.52,1.806 3.534,2.707 6.043,2.707 2.509,0 4.512,-0.901 6.011,-2.707 C 1.496,12.361 2.245,9.983 2.245,7.035 2.245,4.128 1.496,1.783 0,0 m 2.113,19.847 c -2.423,3.08 -5.835,4.622 -10.237,4.622 -2.995,0 -5.691,-0.716 -8.092,-2.146 -2.4,-1.431 -4.27,-3.457 -5.612,-6.075 -1.344,-2.62 -2.015,-5.647 -2.015,-9.083 0,-3.478 0.671,-6.538 2.015,-9.179 1.342,-2.643 3.202,-4.68 5.58,-6.11 2.379,-1.431 5.064,-2.146 8.057,-2.146 4.447,0 7.969,1.695 10.568,5.085 l 2.065,-4.689 h 6.982 V 36.358 H 2.113 Z"
             style="fill:#003246;fill-opacity:1;fill-rule:nonzero;stroke:none"
             id="path26" /></g><g
           id="g28"
           transform="translate(140.5116,10.3032)"><path
             d="m 0,0 c -1.52,-1.804 -3.58,-2.708 -6.175,-2.708 -2.555,0 -4.593,0.904 -6.11,2.708 -1.519,1.806 -2.277,4.162 -2.277,7.067 0,2.907 0.758,5.261 2.277,7.067 1.517,1.806 3.555,2.708 6.11,2.708 C -3.58,16.842 -1.52,15.94 0,14.134 1.518,12.328 2.277,9.974 2.277,7.067 2.277,4.162 1.518,1.806 0,0 m 3.235,22.291 c -2.708,1.429 -5.844,2.146 -9.41,2.146 -3.566,0 -6.704,-0.717 -9.412,-2.146 -2.708,-1.432 -4.801,-3.467 -6.274,-6.11 -1.475,-2.641 -2.213,-5.68 -2.213,-9.114 0,-3.434 0.738,-6.471 2.213,-9.114 1.473,-2.642 3.566,-4.678 6.274,-6.109 2.708,-1.432 5.846,-2.147 9.412,-2.147 3.566,0 6.702,0.715 9.41,2.147 2.708,1.431 4.799,3.455 6.274,6.077 1.475,2.618 2.213,5.668 2.213,9.146 0,3.434 -0.738,6.473 -2.213,9.114 -1.475,2.643 -3.566,4.678 -6.274,6.11"
             style="fill:#003246;fill-opacity:1;fill-rule:nonzero;stroke:none"
             id="path30" /></g><g
           id="g32"
           transform="translate(214.5135,17.6352)"><path
             d="m 0,0 c 0,-3.128 -0.638,-5.559 -1.915,-7.298 -1.278,-1.741 -3.082,-2.609 -5.416,-2.609 -2.245,0 -3.908,0.782 -4.986,2.345 -1.079,1.562 -1.619,3.884 -1.619,6.968 v 17.302 h -9.312 V -1.718 c 0,-5.723 1.256,-9.807 3.765,-12.252 2.511,-2.442 5.746,-3.665 9.708,-3.665 2.29,0 4.227,0.397 5.813,1.189 1.585,0.793 2.972,1.893 4.161,3.302 l 2,-4.094 h 7.114 v 33.946 l -9.313,0 z"
             style="fill:#003246;fill-opacity:1;fill-rule:nonzero;stroke:none"
             id="path34" /></g><g
           id="g36"
           transform="translate(280.03,31.1074)"><path
             d="m 0,0 c -2.289,2.421 -5.263,3.633 -8.915,3.633 -2.555,0 -4.833,-0.495 -6.837,-1.485 -2.003,-0.992 -3.622,-2.412 -4.854,-4.262 -1.893,3.832 -5.262,5.747 -10.106,5.747 -2.376,-0.044 -4.357,-0.463 -5.942,-1.256 -1.586,-0.791 -2.95,-1.915 -4.097,-3.367 l -1.999,4.227 h -6.983 v -33.948 h 9.313 v 18.494 c 0,2.509 0.606,4.5 1.817,5.977 1.209,1.474 2.829,2.211 4.854,2.211 3.962,0 5.943,-2.575 5.943,-7.728 v -18.954 h 9.313 v 18.559 c 0,2.553 0.616,4.546 1.85,5.977 1.231,1.431 2.861,2.146 4.887,2.146 3.917,0 5.878,-2.575 5.878,-7.728 v -18.954 h 9.313 v 18.626 C 3.435,-6.45 2.288,-2.421 0,0"
             style="fill:#003246;fill-opacity:1;fill-rule:nonzero;stroke:none"
             id="path38" /></g><g
           id="g40"
           transform="translate(171.0985,9.9062)"><path
             d="m 0,0 h -0.339 l -8.023,24.438 h -9.975 L -6.118,-9.509 H 5.439 l 12.22,33.947 H 7.884 Z"
             style="fill:#003246;fill-opacity:1;fill-rule:nonzero;stroke:none"
             id="path42" /></g><g
           id="g44"
           transform="translate(98.2753,34.7397)"><path
             d="m 0,0 c -2.467,0 -4.535,-0.407 -6.209,-1.221 -1.674,-0.816 -3.103,-1.947 -4.292,-3.402 l -2.001,4.227 h -6.981 v -33.947 h 9.312 v 17.369 c 0,2.951 0.66,5.241 1.981,6.87 1.32,1.628 3.191,2.444 5.614,2.444 4.579,0 6.87,-2.929 6.87,-8.784 v -17.899 h 9.311 v 18.426 c 0,5.682 -1.278,9.752 -3.83,12.219 C 7.221,-1.232 3.964,0 0,0"
             style="fill:#003246;fill-opacity:1;fill-rule:nonzero;stroke:none"
             id="path46" /></g><g
           id="g48"
           transform="translate(187.8598,75.7681)"><path
             d="M 0,0 H -21.86 L -45.28,66.5 H -46.1 L -66.92,6.94 C -68.3,2.8 -71.88,0 -75.88,0 H -91.4 l 30.6,81.6 h 30.2 z"
             style="fill:#003246;fill-opacity:1;fill-rule:nonzero;stroke:none"
             id="path50" /></g><g
           id="g52"
           transform="translate(136.1599,108.4081)"><path
             d="m 0,0 8.56,-26.52 c 1.3,-4.06 4.68,-6.12 8.56,-6.12 H 29.84 L 18.345,0 Z"
             style="fill:#00e6a0;fill-opacity:1;fill-rule:nonzero;stroke:none"
             id="path54" /></g></g></g></g></svg>
