<?xml version="1.0" encoding="utf-8"?>
<!-- Generator: Adobe Illustrator 27.9.3, SVG Export Plug-In . SVG Version: 9.03 Build 53313)  -->
<svg version="1.1" id="Ebene_1" xmlns="http://www.w3.org/2000/svg" xmlns:xlink="http://www.w3.org/1999/xlink" x="0px" y="0px"
	 viewBox="0 0 648.59 316.93" style="enable-background:new 0 0 648.59 316.93;" xml:space="preserve">
<style type="text/css">
	.st0{fill:#009456;}
</style>
<g>
	<path d="M157.07,150.47c0,0,9.56,2.67,29.59-19.18c5.37-5.86,16.69-22.32,30.82-26.75c5.75-1.8,16.17-4.3,24.56-5.49
		c4.42-0.63,16.76-2.89,24.42-6.24c7.65-3.34,11.52-6.43,12.66-9.59c0,0-3.48,2.08-9.24,3.47c-5.76,1.39-13.72,3.32-28.22,4.48
		c-13.22,1.07-18.83,0.98-27.35,3.08c-8.88,2.22-18.22,5.55-28.2,19.42c-3.83,5.31-10.02,16.2-16.47,24.12
		c-4.37,5.36-7.16,9.21-10.13,11.1L157.07,150.47L157.07,150.47z"/>
	<path d="M247.24,108.9c0,0,7.99,4.39,33.05-7.66c11.71-5.63,43.87-29.2,43.87-29.2s34.31-24.98,55.56-35.11
		c20.29-9.67,33.29-15.45,59.07-17.6c25.78-2.15,35.24,4.97,43.55,10.22c3.07,1.92,6.31,4.25,9.75,8.62
		c4.02,5.11,2.4-7.61-2.14-14.24c-5.51-8.04-9.74-12.51-20.96-17.9c-12.59-6.04-31.52-4.52-33.58-4.31
		c-2.06,0.21-22.71,2.48-46.33,13.12c-23.62,10.64-38.5,22-47.96,29.38c-9.46,7.38-30.43,24.16-36.27,28.92
		c-5.75,4.68-16.63,14.29-28.03,21.56c-11.4,7.28-15.61,9.29-26.71,13.31C248.97,108.41,247.24,108.9,247.24,108.9"/>
	<path d="M459.38,43.33c0,0,4.15,4.47,18.8,2.32c11.71-1.72,17.32-5.06,31.15-3.94c16.12,1.31,24.19,13.95,27.18,19.11
		c2.07,3.57,10.34,18.82,8.02,38.44c-0.19,1.65-0.29,3.14-0.29,3.14s-0.58,1.85,2.44,1.55c3.53-0.34,6.5-4.24,7.06-6.32
		c0.6-2.15,1.66-5.48,0.56-9.7c-0.54-2.06-1.31-3.3-1.03-3.48c0.43-0.22,2.81,1.36,3.98,2.84c2.58,3.27,5.88,11.67,5.1,19.96
		c-0.51,5.32-3.4,11.5-8.56,15.25c-5.16,3.73-7.02,2.85-10.46,3.73c-3.44,0.89-4.05,1.1-4.73,2.96c-0.76,2.06-1.21,2.31-1.78,3.33
		c-0.56,1.02-2.44,3.91-2.64,5.07c-0.2,1.17,0.1,5.76-2.1,11.74c-2.18,5.98-10.36,24.77-15.52,32.51
		c-5.16,7.73-9.01,12.41-13.24,15.46c-4.24,3.04-6.74,5-20.2,4.37c-13.48-0.63-14.77-5.26-28.2,2.58
		c-5.48,3.2-9.17,8.69-22.08,11.55c-4.23,0.94-11.44,0.31-12.54-0.48c0,0,0.61-0.11,2.36-0.54c1.76-0.43,9.32-3.67,13.39-7.34
		c4.07-3.67,8.14-6.36,13.1-11.92c4.96-5.56,10.4-9.2,21.8-7.17c11.39,2.02,12.38,2.23,15.17,2.23c2.79,0,11.23,0.51,16.77-9.2
		c6.04-10.58,8.95-15.13,12.63-24.78c3.68-9.65,4.71-15.27,5.13-21.3c0.41-6.05-0.73-9.61,4.39-16.38
		c5.13-6.76,6.07-17.81,5.56-26.22c-0.52-8.4-2.69-19.93-11.72-28.33c-9-8.41-16.89-10.47-27.7-10.07
		c-10.82,0.42-17.64,1.53-25.99-2.12c-4.24-1.86-6.99-5.01-7.51-8.52C457.18,40.19,459.38,43.33,459.38,43.33"/>
	<path d="M457.42,68.56c0,0-19.86,16.9-5.55,28.17c3.81,2.99,10.82,4.74,7.31,15.65c-3.52,10.91-14.3,9.35-16.23,8.57
		c-1.91-0.8-15.38-7.52-14.31-26.08c1.04-18.21,19.41-25.68,23.21-26.39C455.65,67.78,457.42,68.56,457.42,68.56"/>
	<path d="M470.96,119.26c0,0,11.34,6.17,13.29,7c1.97,0.85,3.49,1.73,2.98,4.9c-0.44,2.83-1.26,8.35-6.85,11.99
		c-5.59,3.65-10.67-0.51-11.86-1.35c-1.18-0.83-5.91-6.43-3.37-14.24C467.1,121.55,470.96,119.26,470.96,119.26"/>
	<path d="M404.99,253.09c-0.97-0.24,5.79-1.44,10.97-5.42c5.14-3.96,10.06-9.45,16.08-16.51c6.03-7.07,15.76-10.32,19.15-11.55
		c1.53-0.55,8.15-2.46,14.06-1.05c0,0-7.68,2.64-15.01,8.8c-6.78,5.7-12.56,13.96-20.94,19.5
		C420.94,252.39,410.05,254.31,404.99,253.09"/>
	<path class="st0" d="M34.15,202.55h8.45c9.42,0,14.97-3.73,14.97-9.51c0-6.73-5.55-7.82-14-7.82h-5.79L34.15,202.55L34.15,202.55z
		 M26.79,237.44h6.04c11.34,0,18.95-3.12,18.95-11.31c0-7.34-5.32-8.41-15.45-8.41H30.9L26.79,237.44L26.79,237.44z M18.82,169.35
		h37.42c8.69,0,23.78,3.36,23.78,19.25c0,11.31-8.81,19.72-22.09,21.29v0.24c9.65,1.44,16.3,6.98,16.3,16.24
		c0,17.81-15.34,26.24-34.64,26.47l-38.38,0.48L18.82,169.35L18.82,169.35z"/>
	<polygon class="st0" points="100.18,169.34 122.87,169.34 105.38,253.32 82.68,253.32 100.18,169.34 	"/>
	<path class="st0" d="M190.47,188.35c-4.34-2.04-10.26-3.85-18.59-3.85c-8.93,0-16.17,1.32-16.17,8.06
		c0,11.91,32.71,7.46,32.71,32.96c0,23.23-21.6,29.24-41.16,29.24c-8.69,0-18.71-2.05-26.08-4.34l5.31-17.09
		c4.47,2.89,13.4,4.82,20.77,4.82c7,0,17.98-1.32,17.98-9.99c0-13.48-32.71-8.42-32.71-32.12c0-21.66,19.08-28.16,37.54-28.16
		c10.38,0,20.16,1.09,25.83,3.73L190.47,188.35L190.47,188.35z"/>
	<path class="st0" d="M248.29,184.5c-17.38,0-24.63,20.08-24.63,34.29c0,10.59,3.99,19.37,15.69,19.37
		c17.39,0,24.63-20.09,24.63-34.16C263.99,193.41,260,184.5,248.29,184.5 M237.91,254.77c-27.4,0-37.42-16.96-37.42-34.17
		c0-31.88,16.77-52.7,49.25-52.7c27.4,0,37.42,16.97,37.42,34.29C287.16,233.95,270.38,254.77,237.91,254.77"/>
	<polygon class="st0" points="307.32,169.34 335.45,169.34 352.71,227.58 352.95,227.58 364.78,169.34 386.02,169.34 368.16,253.32 
		340.15,253.32 322.53,195.21 322.29,195.21 310.58,253.32 289.33,253.32 307.32,169.34 	"/>
	<path d="M88.65,129.26c0,0-0.42,1.88,8.15,9.5c9.9,8.81,20.28,11.13,29.54,11.13c8.95,0.01,21.63-4.75,29.68-13.32
		c8.05-8.58,8-11.81,8-11.81s-7.62,5.77-11.93,8.12c-6.8,3.69-16.74,8.29-25.75,8.32c-11.57,0.03-19.51-2-26.7-5.28
		C92.1,132.48,88.65,129.26,88.65,129.26"/>
	<path d="M70.36,315.52h15.51l0.92-4.83h-9.72l4.24-21.2h-5.76L70.36,315.52L70.36,315.52z M90.52,315.52h15.96l0.96-4.83H97.2
		l1.32-6.21h8.36l0.96-4.84h-8.4l1.04-5.32h9.88l0.92-4.84H95.72L90.52,315.52L90.52,315.52z M120.88,301.52
		c1.16-2.56,2.12-5,3.24-7.68h0.16c0.04,2.72,0.16,5.12,0.28,7.68l0.12,3.28h-5.32L120.88,301.52L120.88,301.52z M108,315.52h6.32
		l3-6.36h7.56l0.24,6.36h6.08l-2.6-26.04h-6.88L108,315.52L108,315.52z M133.72,315.52h8.48c7.92,0,14.35-5.6,14.35-15.52
		c0-7.2-4.64-10.52-11.6-10.52h-6.04L133.72,315.52L133.72,315.52z M140.4,310.88l3.36-16.76h1.08c3.08,0,5.8,1.72,5.8,6.24
		c0,7.16-4.16,10.52-8.6,10.52H140.4L140.4,310.88z M158.72,315.52h5.76l5.2-26.04h-5.76L158.72,315.52L158.72,315.52z
		 M170.72,315.52h5.44l1.92-9.56c0.6-3,0.92-6.56,1.12-9.48h0.16c0.4,2.2,0.88,4.2,1.28,5.72l3.92,13.32h5.72l5.24-26.04h-5.48
		l-1.88,9.52c-0.64,3.04-0.96,6.56-1.16,9.48h-0.16c-0.36-2.08-0.8-4.16-1.24-5.68l-3.96-13.32h-5.72L170.72,315.52L170.72,315.52z
		 M208.03,316c3.28,0,6.24-1.2,8.24-2.72l2.44-12.6h-9.24l-0.84,4.72h4.12l-1.04,4.88c-0.68,0.48-1.72,0.8-2.68,0.8
		c-3.92,0-5.48-2.48-5.48-6.4c0-5.76,3.48-10.72,7.96-10.72c1.72,0,3.28,0.68,4.36,2.24l3.2-3.44c-1.44-2.44-4.08-3.76-7.28-3.76
		c-8,0-14.15,6.96-14.15,16.03C197.64,311.96,201.6,316,208.03,316L208.03,316z M229.08,315.52h9.56c6.12,0,11.31-2.44,11.31-8.6
		c0-2.52-1.56-4.12-4.48-4.84l0.08-0.16c3.48-1.04,5.64-3.56,5.64-6.48c0-4.16-3.64-5.96-8.83-5.96h-8.08L229.08,315.52
		L229.08,315.52z M237.92,300.04l1.24-6.17h2.2c2.68,0,3.92,0.92,3.92,2.56c0,2.16-1.4,3.6-4.88,3.6H237.92L237.92,300.04z
		 M235.72,311.12l1.4-7.16h3.28c2.68,0,4,1.12,4,3.2c0,2.52-1.88,3.96-5.44,3.96H235.72L235.72,311.12z M264.19,316
		c5.72,0,9-3.24,10.68-11.63l3.04-14.88h-5.64l-3,14.96c-1,5.12-2.44,6.56-4.92,6.56c-2.84,0-3.8-1.48-3.8-4.32
		c0-0.96,0.16-1.96,0.36-3l2.84-14.2h-5.8l-2.64,13.08c-0.24,1.36-0.52,3.12-0.52,4.28C254.8,313.04,257.96,316,264.19,316
		L264.19,316z M286.79,316c6.08,0,9.96-3.8,9.96-8.52c0-3.04-1.12-4.6-3.64-6.16l-2.48-1.52c-2.12-1.32-3.24-1.92-3.24-3.28
		c0-1.36,1.08-2.56,3.12-2.56c1.8,0,3.36,0.96,4.72,2.36l3.24-3.32c-1.92-2.48-4.8-4-7.88-4c-4.96,0-9.12,3.68-9.12,8.2
		c0,3.12,1.6,5.04,4.04,6.52l2.24,1.4c1.96,1.2,3.05,1.88,3.05,3.36c0,1.6-1.44,2.52-3.4,2.52c-2.44,0-4.8-1.2-6.24-3.12l-3.44,3.24
		C280.2,314.56,283.6,316,286.79,316L286.79,316z M299.68,315.52h5.76l5.2-26.04h-5.76L299.68,315.52L299.68,315.52z M311.68,315.52
		h5.44l1.92-9.56c0.6-3,0.92-6.56,1.12-9.48h0.16c0.4,2.2,0.88,4.2,1.28,5.72l3.92,13.32h5.72l5.24-26.04h-5.48l-1.88,9.52
		c-0.64,3.04-0.96,6.56-1.16,9.48h-0.16c-0.36-2.08-0.8-4.16-1.24-5.68l-3.96-13.32h-5.72L311.68,315.52L311.68,315.52z
		 M337.48,315.52h15.96l0.96-4.83h-10.24l1.32-6.21h8.36l0.96-4.84h-8.4l1.04-5.32h9.88l0.92-4.84h-15.56L337.48,315.52
		L337.48,315.52z M366.99,316c6.08,0,9.96-3.8,9.96-8.52c0-3.04-1.12-4.6-3.64-6.16l-2.48-1.52c-2.12-1.32-3.25-1.92-3.25-3.28
		c0-1.36,1.08-2.56,3.12-2.56c1.8,0,3.36,0.96,4.72,2.36l3.24-3.32c-1.92-2.48-4.8-4-7.88-4c-4.96,0-9.12,3.68-9.12,8.2
		c0,3.12,1.6,5.04,4.04,6.52l2.24,1.4c1.96,1.2,3.04,1.88,3.04,3.36c0,1.6-1.44,2.52-3.4,2.52c-2.44,0-4.8-1.2-6.23-3.12l-3.44,3.24
		C360.4,314.56,363.8,316,366.99,316L366.99,316z M387.87,316c6.08,0,9.96-3.8,9.96-8.52c0-3.04-1.12-4.6-3.64-6.16l-2.48-1.52
		c-2.12-1.32-3.24-1.92-3.24-3.28c0-1.36,1.08-2.56,3.12-2.56c1.8,0,3.36,0.96,4.72,2.36l3.24-3.32c-1.92-2.48-4.8-4-7.88-4
		c-4.96,0-9.12,3.68-9.12,8.2c0,3.12,1.6,5.04,4.04,6.52l2.24,1.4c1.96,1.2,3.05,1.88,3.05,3.36c0,1.6-1.44,2.52-3.41,2.52
		c-2.44,0-4.8-1.2-6.24-3.12l-3.44,3.24C381.28,314.56,384.68,316,387.87,316L387.87,316z M408.76,315.52h5.76l5.2-26.04h-5.76
		L408.76,315.52L408.76,315.52z M425.52,315.52h5.76l4.2-21.2h6.76l0.92-4.84h-19.28l-0.96,4.84h6.76L425.52,315.52L425.52,315.52z
		 M458.51,316c6.08,0,9.96-3.8,9.96-8.52c0-3.04-1.12-4.6-3.64-6.16l-2.48-1.52c-2.12-1.32-3.24-1.92-3.24-3.28
		c0-1.36,1.08-2.56,3.12-2.56c1.8,0,3.36,0.96,4.72,2.36l3.24-3.32c-1.92-2.48-4.8-4-7.88-4c-4.96,0-9.12,3.68-9.12,8.2
		c0,3.12,1.6,5.04,4.04,6.52l2.24,1.4c1.96,1.2,3.05,1.88,3.05,3.36c0,1.6-1.44,2.52-3.41,2.52c-2.44,0-4.8-1.2-6.23-3.12
		l-3.44,3.24C451.92,314.56,455.32,316,458.51,316L458.51,316z M482.43,316c7,0,13.32-6.6,13.32-15.96c0-7-3.92-11.04-9.88-11.04
		c-7.04,0-13.32,6.6-13.32,15.96C472.56,311.92,476.47,316,482.43,316L482.43,316z M482.71,311c-2.72,0-4.24-2.4-4.24-6.4
		c0-6.04,3.64-10.64,7.08-10.64c2.76,0,4.28,2.4,4.28,6.44C489.84,306.44,486.2,311,482.71,311L482.71,311z M497.92,315.52h15.52
		l0.92-4.83h-9.72l4.24-21.2h-5.76L497.92,315.52L497.92,315.52z M527.11,316c5.72,0,9-3.24,10.68-11.63l3.04-14.88h-5.64l-3,14.96
		c-1,5.12-2.44,6.56-4.92,6.56c-2.84,0-3.8-1.48-3.8-4.32c0-0.96,0.16-1.96,0.36-3l2.84-14.2h-5.8l-2.64,13.08
		c-0.24,1.36-0.52,3.12-0.52,4.28C517.72,313.04,520.87,316,527.11,316L527.11,316z M546.48,315.52h5.76l4.2-21.2h6.76l0.92-4.84
		h-19.28l-0.96,4.84h6.76L546.48,315.52L546.48,315.52z M563.08,315.52h5.76l5.2-26.04h-5.76L563.08,315.52L563.08,315.52z
		 M586.11,316c7,0,13.32-6.6,13.32-15.96c0-7-3.92-11.04-9.88-11.04c-7.04,0-13.32,6.6-13.32,15.96
		C576.24,311.92,580.15,316,586.11,316L586.11,316z M586.39,311c-2.72,0-4.24-2.4-4.24-6.4c0-6.04,3.64-10.64,7.08-10.64
		c2.76,0,4.28,2.4,4.28,6.44C593.52,306.44,589.87,311,586.39,311L586.39,311z M601.6,315.52h5.44l1.92-9.56
		c0.6-3,0.92-6.56,1.12-9.48h0.16c0.4,2.2,0.88,4.2,1.28,5.72l3.92,13.32h5.72l5.24-26.04h-5.48l-1.88,9.52
		c-0.64,3.04-0.96,6.56-1.16,9.48h-0.16c-0.36-2.08-0.8-4.16-1.24-5.68l-3.96-13.32h-5.72L601.6,315.52L601.6,315.52z M635.79,316
		c6.08,0,9.96-3.8,9.96-8.52c0-3.04-1.12-4.6-3.64-6.16l-2.48-1.52c-2.12-1.32-3.24-1.92-3.24-3.28c0-1.36,1.08-2.56,3.12-2.56
		c1.8,0,3.36,0.96,4.72,2.36l3.24-3.32c-1.92-2.48-4.8-4-7.88-4c-4.96,0-9.12,3.68-9.12,8.2c0,3.12,1.6,5.04,4.04,6.52l2.24,1.4
		c1.96,1.2,3.04,1.88,3.04,3.36c0,1.6-1.44,2.52-3.41,2.52c-2.44,0-4.8-1.2-6.23-3.12l-3.44,3.24
		C629.19,314.56,632.59,316,635.79,316L635.79,316z"/>
</g>
</svg>
