<?xml version="1.0" encoding="utf-8"?>
<!-- Generator: Adobe Illustrator 16.0.0, SVG Export Plug-In . SVG Version: 6.00 Build 0)  -->
<!DOCTYPE svg PUBLIC "-//W3C//DTD SVG 1.1//EN" "http://www.w3.org/Graphics/SVG/1.1/DTD/svg11.dtd">
<svg version="1.1" id="Layer_1" xmlns="http://www.w3.org/2000/svg" xmlns:xlink="http://www.w3.org/1999/xlink" x="0px" y="0px"
	 viewBox="0 0 238 102" enable-background="new 0 0 238 102" xml:space="preserve">
<path fill="#ED1847" d="M231.911,14.491c-0.416-0.137-42.52-13.833-94.318-13.833c-21.296,0-42.922,2.661-64.274,7.918
	c-17.317,3.976-26.924,8.335-27.017,8.38l-0.722,0.332l4.156,0.117c0.1-0.045,7.652-2.004,24.284-6.09
	c17.945-4.119,37.045-6.214,56.765-6.214c51.3,0,92.545,14.724,92.955,14.868l0.222,0.078l0.279,0.104l0.279-0.111l0.215-0.078
	l7.245-2.811l1.578-0.612l2.095-0.813l-2.134-0.703L231.911,14.491z"/>
<path d="M28.488,42.683c2.178-2.362,5.1-4.131,8.77-5.329c3.676-1.197,7.495-1.796,11.469-1.796c5.675,0,10.34,1.086,13.984,3.273
	c3.65,2.173,4.874,6.064,3.681,11.672c-1.02,4.802-3.795,8.413-8.328,10.82c-4.534,2.414-9.838,3.617-15.914,3.617
	c-6.614,0-11.461-1.359-14.542-4.086c-3.09-2.719-4.177-6.207-3.272-10.449C24.928,47.615,26.313,45.039,28.488,42.683z
	 M20.771,65.28l0.974-2.713c2.142,2.323,4.223,3.937,6.243,4.841c2.024,0.904,4.391,1.588,7.11,2.043
	c2.713,0.455,5.68,0.689,8.897,0.689c9.828,0,17.888-1.887,24.182-5.647c6.298-3.761,10.053-8.497,11.261-14.191
	c0.815-3.839,0.236-7.3-1.747-10.384c-1.981-3.084-5.174-5.4-9.581-6.956c-4.403-1.548-9.441-2.329-15.113-2.329
	c-3.13,0-6.165,0.247-9.106,0.742c-2.941,0.488-5.711,1.21-8.306,2.173c-2.596,0.963-5.479,2.505-8.654,4.626l4.922-23.15H19.391
	l-9.145,43.021c-0.08,0.377-0.29,1.126-0.612,2.238c-0.33,1.119-0.758,2.564-1.285,4.327C7.814,66.373,7.305,67.87,6.82,69.1h12.466
	C19.776,68.053,20.269,66.777,20.771,65.28z"/>
<path d="M105.875,42.683c2.173-2.362,5.099-4.131,8.771-5.329c3.668-1.197,7.494-1.796,11.469-1.796
	c5.674,0,10.332,1.086,13.982,3.273c3.645,2.173,4.874,6.064,3.684,11.672c-1.021,4.802-3.801,8.413-8.336,10.82
	c-4.527,2.414-9.838,3.617-15.904,3.617c-6.621,0-11.466-1.359-14.551-4.086c-3.084-2.719-4.174-6.207-3.272-10.449
	C102.313,47.615,103.694,45.039,105.875,42.683z M98.155,65.28l0.981-2.713c2.139,2.323,4.221,3.937,6.238,4.841
	c2.023,0.904,4.385,1.588,7.105,2.043s5.685,0.689,8.899,0.689c9.828,0,17.893-1.887,24.185-5.647
	c6.295-3.761,10.053-8.497,11.263-14.191c0.813-3.839,0.229-7.3-1.747-10.384c-1.981-3.084-5.176-5.4-9.577-6.956
	c-4.412-1.548-9.451-2.329-15.121-2.329c-3.127,0-6.165,0.247-9.106,0.742c-2.94,0.488-5.704,1.21-8.302,2.173
	c-2.593,0.963-5.477,2.505-8.652,4.626l4.919-23.15H96.778l-9.147,43.021c-0.081,0.377-0.286,1.126-0.611,2.238
	c-0.325,1.119-0.756,2.564-1.288,4.327c-0.53,1.763-1.041,3.26-1.524,4.489h12.468C97.163,68.053,97.658,66.777,98.155,65.28z"/>
<path d="M197.244,69.1h-12.463l-22.535-37.425h13.403l17.747,29.351l30.766-29.351h12.401L197.244,69.1z"/>
<g>
	<path fill="#999B9E" d="M13.301,87.78c-0.957-0.495-2.199-0.847-3.396-0.847c-1.178,0-2.746,0.469-2.746,1.881
		c0,2.629,5.583,2.466,5.583,7.014c0,4.015-3.143,5.466-6.734,5.466c-1.571,0-3.191-0.377-4.67-0.917l0.844-2.792
		c1.269,0.586,2.604,1.126,4.015,1.126c1.575,0,3.12-0.794,3.12-2.557c0-2.954-5.586-2.486-5.586-6.846
		c0-3.448,2.962-4.951,6.104-4.951c1.431,0,2.908,0.189,4.242,0.723L13.301,87.78z"/>
	<path fill="#999B9E" d="M27.218,93.948c0,4.249-2.935,7.346-7.201,7.346c-3.432,0-5.493-2.108-5.493-5.511
		c0-4.034,3.097-7.138,7.159-7.138C24.941,88.646,27.218,90.623,27.218,93.948z M23.933,93.975c0-1.575-0.54-2.89-2.395-2.89
		c-2.485,0-3.73,2.753-3.73,4.933c0,1.594,0.657,2.836,2.463,2.836C22.712,98.854,23.933,96.037,23.933,93.975z"/>
	<path fill="#999B9E" d="M30.994,91.229h-2.442l0.495-2.297h2.44c0.631-3.071,1.666-5.797,5.327-5.797
		c0.724,0,1.43,0.143,1.947,0.305l-0.729,2.35c-0.28-0.144-0.635-0.215-0.965-0.215c-1.732,0-2.132,2.089-2.44,3.357h2.819
		l-0.493,2.297h-2.821l-2.063,9.785H28.93L30.994,91.229z"/>
	<path fill="#999B9E" d="M37.583,88.932h2.277l0.539-2.485l3.378-1.106l-0.774,3.592h2.817l-0.495,2.297h-2.813l-1.15,5.283
		c-0.073,0.279-0.14,0.703-0.14,1.171c0,0.723,0.491,1.171,1.194,1.171c0.566,0,1.125-0.116,1.529-0.279l-0.542,2.439
		c-0.539,0.117-1.15,0.28-1.69,0.28c-2.134,0-3.639-0.846-3.639-3.162c0-0.943,0.19-1.854,0.403-2.817l0.89-4.086h-2.274
		L37.583,88.932z"/>
	<path fill="#999B9E" d="M45.938,88.932h3.143l0.87,9.076h0.049l4.433-9.076h3.492l0.657,9.076h0.051l4.644-9.076h3.216
		l-6.711,12.082h-3.543l-0.68-9.245h-0.045l-4.415,9.245h-3.566L45.938,88.932z"/>
	<path fill="#999B9E" d="M72.822,99.16h-0.047c-1.079,1.359-2.159,2.134-3.893,2.134c-2.183,0-3.731-1.217-3.731-3.448
		c0-3.988,4.455-4.295,7.414-4.295h1.103c0.098-0.325,0.098-0.676,0.098-1.027c0-1.224-1.317-1.575-2.42-1.575
		c-1.386,0-2.72,0.352-3.964,0.938l0.444-2.512c1.339-0.469,2.7-0.729,4.107-0.729c2.419,0,4.689,0.897,4.689,3.734
		c0,1.62-1.194,6.357-1.477,8.634h-2.65L72.822,99.16z M69.751,98.997c2.346,0,3.071-1.62,3.567-3.565h-1.104
		c-1.525,0-4.057,0.254-4.057,2.297C68.157,98.574,68.951,98.997,69.751,98.997z"/>
	<path fill="#999B9E" d="M79.77,90.552c0.093-0.521,0.187-1.061,0.28-1.62h3.004l-0.424,2.277h0.05
		c0.56-1.314,2.108-2.563,3.565-2.563c0.398,0,0.82,0.025,1.197,0.123l-0.655,3.071c-0.354-0.117-0.804-0.188-1.199-0.188
		c-2.231,0-3.312,1.997-3.71,3.942l-1.124,5.42h-3.143L79.77,90.552z"/>
	<path fill="#999B9E" d="M89.411,95.945c0,2.226,1.197,3.052,3.353,3.052c1.296,0,2.539-0.332,3.71-0.865l-0.397,2.485
		c-1.223,0.371-2.557,0.677-3.852,0.677c-3.468,0-5.816-1.691-5.816-5.276c0-3.755,2.906-7.372,6.874-7.372
		c2.98,0,4.948,1.528,4.948,4.6c0,0.918-0.117,1.81-0.303,2.7H89.411z M95.159,93.785c0.044-0.279,0.071-0.54,0.071-0.819
		c0-1.288-0.683-2.018-1.997-2.018c-1.945,0-2.792,1.172-3.395,2.837H95.159z"/>
	<path fill="#999B9E" d="M116.25,87.78c-0.959-0.495-2.202-0.847-3.399-0.847c-1.178,0-2.744,0.469-2.744,1.881
		c0,2.629,5.579,2.466,5.579,7.014c0,4.015-3.141,5.466-6.732,5.466c-1.571,0-3.188-0.377-4.665-0.917l0.839-2.792
		c1.269,0.586,2.609,1.126,4.013,1.126c1.576,0,3.125-0.794,3.125-2.557c0-2.954-5.589-2.486-5.589-6.846
		c0-3.448,2.959-4.951,6.104-4.951c1.431,0,2.906,0.189,4.245,0.723L116.25,87.78z"/>
	<path fill="#999B9E" d="M120.26,95.945c0,2.226,1.197,3.052,3.357,3.052c1.288,0,2.531-0.332,3.705-0.865l-0.4,2.485
		c-1.217,0.371-2.557,0.677-3.845,0.677c-3.475,0-5.815-1.691-5.815-5.276c0-3.755,2.906-7.372,6.869-7.372
		c2.98,0,4.951,1.528,4.951,4.6c0,0.918-0.117,1.81-0.305,2.7H120.26z M126.012,93.785c0.045-0.279,0.071-0.54,0.071-0.819
		c0-1.288-0.683-2.018-1.997-2.018c-1.945,0-2.792,1.172-3.403,2.837H126.012z"/>
	<path fill="#999B9E" d="M131.62,90.552c0.091-0.521,0.183-1.061,0.28-1.62h2.999l-0.423,2.277h0.045
		c0.57-1.314,2.115-2.563,3.572-2.563c0.397,0,0.82,0.025,1.197,0.123l-0.657,3.071c-0.351-0.117-0.8-0.188-1.196-0.188
		c-2.232,0-3.313,1.997-3.709,3.942l-1.126,5.42h-3.143L131.62,90.552z"/>
	<path fill="#999B9E" d="M139.057,88.932h3.215l1.217,8.868h0.045l4.764-8.868h3.33l-7.059,12.082h-3.475L139.057,88.932z"/>
	<path fill="#999B9E" d="M153.039,88.932h3.143l-2.582,12.082h-3.143L153.039,88.932z M154.185,83.72h3.143l-0.657,3.006h-3.143
		L154.185,83.72z"/>
	<path fill="#999B9E" d="M166.365,91.697c-0.611-0.397-1.432-0.612-2.297-0.612c-2.519,0-3.924,2.349-3.924,4.626
		c0,1.575,0.521,3.143,2.674,3.143c0.774,0,1.738-0.208,2.564-0.611l-0.358,2.492c-0.956,0.469-1.991,0.56-3.025,0.56
		c-3.123,0-5.14-2.089-5.14-5.212c0-4.216,2.791-7.437,7.137-7.437c1.172,0,2.297,0.215,3.14,0.475L166.365,91.697z"/>
	<path fill="#999B9E" d="M169.481,95.945c0,2.226,1.197,3.052,3.36,3.052c1.285,0,2.535-0.332,3.699-0.865l-0.396,2.485
		c-1.217,0.371-2.558,0.677-3.846,0.677c-3.468,0-5.816-1.691-5.816-5.276c0-3.755,2.908-7.372,6.87-7.372
		c2.98,0,4.952,1.528,4.952,4.6c0,0.918-0.117,1.81-0.307,2.7H169.481z M175.233,93.785c0.046-0.279,0.065-0.54,0.065-0.819
		c0-1.288-0.678-2.018-1.992-2.018c-1.945,0-2.791,1.172-3.402,2.837H175.233z"/>
	<path fill="#999B9E" d="M187.875,91.515c-0.819-0.306-1.685-0.566-2.583-0.566c-0.937,0-2.108,0.261-2.108,1.217
		c0,1.529,4.087,2.089,4.087,5.05c0,3.143-2.746,4.079-5.446,4.079c-1.269,0-2.534-0.183-3.683-0.729l0.677-2.512
		c0.898,0.494,1.783,0.943,3.006,0.943c1.055,0,2.16-0.352,2.16-1.34c0-1.946-4.086-2.135-4.086-5.16
		c0-2.837,2.746-3.852,5.231-3.852c1.151,0,2.323,0.215,3.429,0.494L187.875,91.515z"/>
	<path fill="#999B9E" d="M202.515,85.269h3.504l2.86,15.752h-3.156l-0.537-3.611h-6.711l-2.011,3.611h-3.501L202.515,85.269z
		 M199.873,94.931h4.88l-0.995-6.864h-0.091L199.873,94.931z"/>
	<path fill="#999B9E" d="M224.194,88.606c-1.223-0.787-2.732-1.126-4.379-1.126c-3.845,0-6.259,3-6.259,6.728
		c0,2.551,1.764,4.606,4.45,4.606c0.723,0,1.2,0,1.556-0.162l0.885-4.178h-3.345l0.521-2.479h6.39l-1.809,8.602
		c-0.925,0.377-2.688,0.696-4.224,0.696c-4.626,0-7.716-2.121-7.716-7.001c0-5.752,3.767-9.298,9.46-9.298
		c1.757,0,3.611,0.247,5.258,0.885L224.194,88.606z"/>
</g>
</svg>
