<svg id="Ebene_1" data-name="Ebene 1" xmlns="http://www.w3.org/2000/svg" viewBox="0 0 92.37 27.5"><defs><style>.cls-1{fill:#e5261f;}</style></defs><title>Logo Redesign Ergon RGB</title><path class="cls-1" d="M124.87,38.34a19.24,19.24,0,0,1-.22,2.82L123,52.66h-5.2l2-12a4.91,4.91,0,0,0,.11-1.43c-.37-2.51-4.1-2.29-5.61-1.74l-2.43,15.21h-5.16l3.07-18.55s8.7-.35,10.21-.35c3.12,0,4.95,1.72,4.95,4.58" transform="translate(-32.5 -33.43)"/><path class="cls-1" d="M98,47.06a18.18,18.18,0,0,0,1.17-6.59c0-2.6-1-3.92-3-3.92-1.57,0-2.71.92-3.44,2.86A18.12,18.12,0,0,0,91.58,46c0,2.64,1,4,3,4,1.61,0,2.67-.88,3.44-2.86M96.38,33.43c5,0,8.1,3.19,8.1,8.24,0,6.89-4,11.35-10.07,11.35-5,0-8.1-3.15-8.1-8.31,0-6.82,4-11.28,10.07-11.28" transform="translate(-32.5 -33.43)"/><path class="cls-1" d="M77,48.49,78.79,37a9.37,9.37,0,0,0-1.36-.11,5,5,0,0,0-4.84,2.67,11.68,11.68,0,0,0-1.35,5.6c0,2.67,1,4,3,4A8.37,8.37,0,0,0,77,48.49m7.51-14.87L81.32,53.73c-.77,5-3.55,7.21-9,7.21a32.82,32.82,0,0,1-7.58-1.17l.48-3a31.61,31.61,0,0,0,5.68.59c3.7,0,4.87-1,5.42-4.43l.29-1.83-.48.26C73.63,52.7,72.79,53,71.43,53,68,53,66,50.17,66,45.48c0-6.88,4.36-12,10.29-12,1.32,0,8.24.11,8.24.11" transform="translate(-32.5 -33.43)"/><path class="cls-1" d="M65.54,33.95l-.69,4.4a8.44,8.44,0,0,0-3.48-.84,7.56,7.56,0,0,0-3.08.69L56,52.66H50.82l3-18.9h5.05l-.29,1.76c2.49-1.57,3.59-2,4.87-2a4.28,4.28,0,0,1,2.09.48" transform="translate(-32.5 -33.43)"/><path class="cls-1" d="M44.55,38.16c0-1.21-.7-1.87-2-1.87-2.34,0-4,2.05-4.47,5.53h.51c3.92,0,6-1.32,6-3.66m-1.06-4.69c3.81,0,5.93,1.65,5.93,4.58,0,4.36-3.44,6.52-10.37,6.52H37.77a5,5,0,0,0,0,.73c0,3,1.36,4.32,4.4,4.32A22,22,0,0,0,47,49l-.4,2.75A18.88,18.88,0,0,1,40.48,53c-5.17,0-8-2.71-8-7.69,0-7,4.47-11.79,11-11.79" transform="translate(-32.5 -33.43)"/></svg>