<?xml version="1.0" encoding="utf-8"?>
<!-- Generator: Adobe Illustrator 16.0.0, SVG Export Plug-In . SVG Version: 6.00 Build 0)  -->
<!DOCTYPE svg PUBLIC "-//W3C//DTD SVG 1.1//EN" "http://www.w3.org/Graphics/SVG/1.1/DTD/svg11.dtd">
<svg version="1.1" id="Layer_1" xmlns="http://www.w3.org/2000/svg" xmlns:xlink="http://www.w3.org/1999/xlink" x="0px" y="0px"
	 viewBox="0 0 230 23" enable-background="new 0 0 230 23" xml:space="preserve">
<g>
	<path d="M183.675,21.615c-0.322,0-0.644-0.322-0.644-0.645V17.59c0-0.309,0.321-0.645,0.644-0.645h3.382v-6.443
		c0-5.827,3.393-9.341,9.181-9.341h4.026c0.309,0,0.645,0.337,0.645,0.644v3.382c0,0.322-0.336,0.645-0.645,0.645h-3.382
		c-3.296,0-4.671,1.25-4.671,4.509v6.604h9.181c0.322,0,0.645,0.336,0.645,0.645v3.381c0,0.307-0.322,0.645-0.645,0.645H183.675
		L183.675,21.615z"/>
	<path d="M74.155,1.161c0.322,0,0.644,0.322,0.644,0.644v3.382c0,0.322-0.322,0.645-0.644,0.645h-9.02v7.73
		c0,3.26,2.058,3.383,3.866,3.383h3.221c0.322,0,0.644,0.322,0.644,0.645v3.381c0,0.307-0.322,0.645-0.644,0.645h-4.349
		c-5.476,0-7.892-2.254-7.892-8.053v-7.73h-3.865c-0.322,0-0.645-0.322-0.645-0.645V1.805c0-0.322,0.299-0.644,0.645-0.644H74.155
		L74.155,1.161z"/>
	<path d="M98.636,1.161h-8.375c-5.827,0-9.181,3.543-9.181,9.341v1.933c0,5.799,3.354,9.18,9.181,9.18h7.731
		c0.322,0,0.644-0.322,0.644-0.645V17.59c0-0.322-0.322-0.645-0.644-0.645h-7.087c-3.382,0-4.67-1.289-4.67-4.51v-2.094
		c0-3.382,1.212-4.509,4.509-4.509h7.892c0.307,0,0.644-0.336,0.644-0.645V1.805C99.28,1.483,98.958,1.161,98.636,1.161
		L98.636,1.161z"/>
	<path d="M13.918,1.161H9.731C5.221,1.161,2,3.588,2,8.731v12.24c0,0.322,0.322,0.645,0.645,0.645H6.51
		c0.322,0,0.644-0.322,0.644-0.645V9.053c0-1.933,0.967-3.221,3.221-3.221h2.577c3.865,0,4.51,0.966,4.51,3.865v11.273
		c0,0.322,0.322,0.645,0.644,0.645h3.866c0.307,0,0.644-0.322,0.644-0.645V9.697C22.616,3.899,20.039,1.161,13.918,1.161
		L13.918,1.161z"/>
	<path d="M150.819,1.161c0.321,0,0.644,0.322,0.644,0.644v3.382c0,0.322-0.322,0.645-0.644,0.645h-9.02v7.73
		c0,3.26,2.058,3.383,3.865,3.383h3.221c0.322,0,0.645,0.322,0.645,0.645v3.381c0,0.307-0.322,0.645-0.645,0.645h-4.348
		c-5.477,0-7.893-2.254-7.893-8.053v-7.73h-3.865c-0.322,0-0.645-0.322-0.645-0.645V1.805c0-0.322,0.3-0.644,0.645-0.644H150.819
		L150.819,1.161z"/>
	<path fill-rule="evenodd" clip-rule="evenodd" d="M208.317,15.656c0,3.543,2.898,5.959,6.765,5.959h6.604
		c4.67,0,7.086-2.832,7.086-6.764V9.579c0-5.827-2.747-8.418-8.536-8.418h-8.536c-0.322,0-0.645,0.322-0.645,0.644v3.382
		c0,0.308,0.338,0.645,0.645,0.645h8.214c2.738,0,3.705,0.483,3.705,3.382h-8.536c-3.916,0-6.765,1.932-6.765,6.12V15.656
		L208.317,15.656z M214.921,13.563h8.697c-0.009,0.377,0.001,1.123,0,1.449c0,1.611-0.967,2.094-2.416,2.094h-6.281
		c-0.967,0-1.772-0.645-1.772-1.771v-0.16C213.148,13.885,213.954,13.563,214.921,13.563L214.921,13.563z"/>
	<path fill-rule="evenodd" clip-rule="evenodd" d="M47.097,20.971c0,0.322-0.322,0.645-0.644,0.645h-7.731
		c-6.281,0-9.502-3.676-9.502-9.502v-2.01c0-5.79,3.714-9.103,9.502-9.103h2.255c5.798,0,9.019,3.645,9.019,8.697v0.644
		c0,1.61-0.966,3.221-3.543,3.221H34.534c0.322,2.898,1.61,3.383,4.51,3.383h7.409c0.322,0,0.644,0.336,0.644,0.645V20.971
		L47.097,20.971z M34.373,9.214h10.469C44.681,6.798,43.56,5.51,40.356,5.51h-1.089C35.845,5.51,34.373,6.798,34.373,9.214
		L34.373,9.214z"/>
	<path fill-rule="evenodd" clip-rule="evenodd" d="M123.761,20.971c0,0.322-0.322,0.645-0.644,0.645h-7.731
		c-6.281,0-9.502-3.676-9.502-9.502v-2.01c0-5.79,3.714-9.103,9.502-9.103h2.255c5.798,0,9.02,3.645,9.02,8.697v0.644
		c0,1.61-0.967,3.221-3.543,3.221h-11.919c0.322,2.898,1.611,3.383,4.51,3.383h7.409c0.321,0,0.644,0.336,0.644,0.645V20.971
		L123.761,20.971z M111.037,9.214h10.469c-0.161-2.416-1.281-3.705-4.485-3.705h-1.089C112.51,5.51,111.037,6.798,111.037,9.214
		L111.037,9.214z"/>
	<path fill-rule="evenodd" clip-rule="evenodd" d="M175.3,20.971c0,0.322-0.322,0.645-0.644,0.645h-7.731
		c-6.281,0-9.502-3.676-9.502-9.502v-2.01c0-5.79,3.714-9.103,9.502-9.103h2.255c5.798,0,9.02,3.645,9.02,8.697v0.644
		c0,1.61-0.967,3.221-3.543,3.221h-11.919c0.322,2.898,1.61,3.383,4.51,3.383h7.409c0.321,0,0.644,0.336,0.644,0.645V20.971
		L175.3,20.971z M162.576,9.214h10.469c-0.161-2.416-1.281-3.705-4.485-3.705h-1.089C164.049,5.51,162.576,6.798,162.576,9.214
		L162.576,9.214z"/>
</g>
</svg>
