<?xml version="1.0" encoding="UTF-8"?><svg id="Outline" xmlns="http://www.w3.org/2000/svg" viewBox="0 0 3285.74 1133.79"><defs><style>.cls-1{fill:#fff;}.cls-2{fill:#ff7900;}</style></defs><g><path d="m1185.44,396.83c16.19,0,30.95,1.43,44.29,4.29,13.33,2.86,24.76,7.54,34.29,14.05,9.52,6.51,16.91,15.16,22.14,25.95,5.24,10.8,7.86,24.13,7.86,40,0,17.14-3.89,31.43-11.67,42.86-7.78,11.43-19.29,20.8-34.52,28.1,20.95,6.03,36.58,16.59,46.91,31.67,10.31,15.08,15.48,33.26,15.48,54.52,0,17.14-3.33,31.99-10,44.52-6.67,12.54-15.64,22.78-26.91,30.71-11.27,7.94-24.13,13.81-38.57,17.62-14.45,3.81-29.29,5.71-44.52,5.71h-164.76v-340h160Zm-9.52,137.62c13.33,0,24.29-3.17,32.86-9.52,8.57-6.35,12.86-16.67,12.86-30.95,0-7.93-1.43-14.44-4.29-19.52-2.86-5.07-6.67-9.05-11.43-11.9-4.76-2.86-10.24-4.84-16.43-5.95-6.19-1.11-12.62-1.67-19.29-1.67h-70v79.52h75.72Zm4.29,144.29c7.3,0,14.29-.71,20.95-2.14s12.54-3.81,17.62-7.14c5.07-3.33,9.12-7.86,12.14-13.57,3.01-5.71,4.52-13.01,4.52-21.9,0-17.46-4.93-29.92-14.76-37.38-9.84-7.46-22.86-11.19-39.05-11.19h-81.43v93.33h80Z"/><path d="m1510.3,736.83v-34.29h-1.43c-8.57,14.29-19.69,24.61-33.33,30.95-13.65,6.35-27.62,9.52-41.91,9.52-18.1,0-32.94-2.38-44.52-7.14-11.59-4.76-20.71-11.5-27.38-20.24-6.67-8.73-11.35-19.36-14.05-31.9-2.7-12.54-4.05-26.43-4.05-41.67v-151.43h67.62v139.05c0,20.32,3.17,35.48,9.52,45.48,6.35,10,17.62,15,33.81,15,18.41,0,31.74-5.48,40-16.43,8.25-10.95,12.38-28.97,12.38-54.05v-129.05h67.62v246.19h-64.29Z"/><path d="m1675.24,675.64c3.01,5.24,6.91,9.52,11.67,12.86s10.24,5.8,16.43,7.38c6.19,1.59,12.62,2.38,19.29,2.38,4.76,0,9.76-.55,15-1.67,5.24-1.11,10-2.86,14.29-5.24,4.29-2.38,7.86-5.55,10.71-9.52,2.86-3.97,4.29-8.97,4.29-15,0-10.16-6.75-17.78-20.24-22.86-13.5-5.07-32.31-10.16-56.43-15.24-9.84-2.22-19.45-4.84-28.81-7.86-9.37-3.01-17.7-6.98-25-11.91-7.31-4.92-13.18-11.11-17.62-18.57-4.45-7.46-6.67-16.59-6.67-27.38,0-15.87,3.09-28.88,9.29-39.05,6.19-10.16,14.36-18.17,24.52-24.05,10.16-5.87,21.58-10,34.29-12.38,12.69-2.38,25.71-3.57,39.05-3.57s26.27,1.27,38.81,3.81c12.54,2.54,23.73,6.83,33.57,12.86,9.84,6.03,18.01,14.05,24.52,24.05,6.5,10,10.39,22.62,11.67,37.86h-64.29c-.95-13.01-5.88-21.82-14.76-26.43-8.89-4.6-19.37-6.9-31.43-6.9-3.81,0-7.94.24-12.38.71-4.45.48-8.5,1.51-12.14,3.1-3.65,1.59-6.75,3.89-9.29,6.9-2.54,3.02-3.81,7.07-3.81,12.14,0,6.03,2.22,10.95,6.67,14.76,4.44,3.81,10.24,6.9,17.38,9.29,7.14,2.38,15.31,4.52,24.52,6.43,9.2,1.9,18.57,3.97,28.1,6.19,9.84,2.22,19.44,4.93,28.81,8.1,9.36,3.18,17.69,7.38,25,12.62,7.3,5.24,13.17,11.75,17.62,19.52,4.44,7.78,6.67,17.38,6.67,28.81,0,16.19-3.26,29.76-9.76,40.71-6.51,10.95-15,19.76-25.48,26.43-10.48,6.67-22.46,11.35-35.95,14.05-13.5,2.69-27.23,4.05-41.19,4.05s-28.26-1.43-41.91-4.29c-13.65-2.86-25.8-7.62-36.43-14.29-10.64-6.67-19.37-15.48-26.19-26.43-6.83-10.95-10.56-24.68-11.19-41.19h64.29c0,7.31,1.5,13.57,4.52,18.81Z"/><path d="m1867.81,452.54v-55.72h67.62v55.72h-67.62Zm67.62,38.1v246.19h-67.62v-246.19h67.62Z"/><path d="m2044.24,490.64v34.29h1.43c8.57-14.29,19.68-24.68,33.33-31.19,13.65-6.5,27.62-9.76,41.91-9.76,18.1,0,32.93,2.46,44.52,7.38,11.58,4.93,20.71,11.75,27.38,20.48,6.67,8.74,11.35,19.37,14.05,31.91,2.69,12.54,4.05,26.43,4.05,41.67v151.43h-67.62v-139.05c0-20.31-3.18-35.48-9.52-45.48-6.35-10-17.62-15-33.81-15-18.42,0-31.75,5.48-40,16.43-8.26,10.95-12.38,28.97-12.38,54.05v129.05h-67.62v-246.19h64.29Z"/><path d="m2326.19,677.78c10.16,9.84,24.76,14.76,43.81,14.76,13.65,0,25.39-3.41,35.24-10.24,9.84-6.82,15.87-14.05,18.09-21.67h59.52c-9.52,29.52-24.13,50.64-43.81,63.33-19.69,12.7-43.5,19.05-71.43,19.05-19.37,0-36.83-3.1-52.38-9.29-15.56-6.19-28.74-15-39.52-26.43-10.8-11.43-19.13-25.07-25-40.95-5.88-15.87-8.81-33.33-8.81-52.38s3.01-35.55,9.05-51.43c6.03-15.87,14.6-29.6,25.71-41.19,11.11-11.58,24.36-20.71,39.76-27.38,15.39-6.67,32.46-10,51.19-10,20.95,0,39.2,4.05,54.76,12.14,15.55,8.1,28.33,18.97,38.33,32.62,10,13.65,17.22,29.21,21.67,46.67,4.44,17.46,6.03,35.71,4.76,54.76h-177.62c.95,21.9,6.5,37.78,16.67,47.62Zm76.43-129.53c-8.1-8.88-20.4-13.33-36.91-13.33-10.8,0-19.76,1.83-26.91,5.48-7.14,3.65-12.86,8.18-17.14,13.57-4.29,5.4-7.31,11.12-9.05,17.14-1.75,6.03-2.78,11.43-3.09,16.19h110c-3.18-17.14-8.81-30.16-16.9-39.05Z"/><path d="m2573.52,675.64c3.01,5.24,6.91,9.52,11.67,12.86s10.24,5.8,16.43,7.38c6.19,1.59,12.62,2.38,19.29,2.38,4.76,0,9.76-.55,15-1.67,5.24-1.11,10-2.86,14.29-5.24,4.29-2.38,7.86-5.55,10.71-9.52,2.86-3.97,4.29-8.97,4.29-15,0-10.16-6.75-17.78-20.24-22.86-13.5-5.07-32.31-10.16-56.43-15.24-9.84-2.22-19.45-4.84-28.81-7.86-9.37-3.01-17.7-6.98-25-11.91-7.31-4.92-13.18-11.11-17.62-18.57-4.45-7.46-6.67-16.59-6.67-27.38,0-15.87,3.09-28.88,9.29-39.05,6.19-10.16,14.36-18.17,24.52-24.05,10.16-5.87,21.58-10,34.29-12.38,12.69-2.38,25.71-3.57,39.05-3.57s26.27,1.27,38.81,3.81c12.54,2.54,23.73,6.83,33.57,12.86,9.84,6.03,18.01,14.05,24.52,24.05,6.5,10,10.39,22.62,11.67,37.86h-64.29c-.95-13.01-5.88-21.82-14.76-26.43-8.89-4.6-19.37-6.9-31.43-6.9-3.81,0-7.94.24-12.38.71-4.45.48-8.5,1.51-12.14,3.1-3.65,1.59-6.75,3.89-9.29,6.9-2.54,3.02-3.81,7.07-3.81,12.14,0,6.03,2.22,10.95,6.67,14.76,4.44,3.81,10.24,6.9,17.38,9.29,7.14,2.38,15.31,4.52,24.52,6.43,9.2,1.9,18.57,3.97,28.1,6.19,9.84,2.22,19.44,4.93,28.81,8.1,9.36,3.18,17.69,7.38,25,12.62,7.3,5.24,13.17,11.75,17.62,19.52,4.44,7.78,6.67,17.38,6.67,28.81,0,16.19-3.26,29.76-9.76,40.71-6.51,10.95-15,19.76-25.48,26.43-10.48,6.67-22.46,11.35-35.95,14.05-13.5,2.69-27.23,4.05-41.19,4.05s-28.26-1.43-41.91-4.29c-13.65-2.86-25.8-7.62-36.43-14.29-10.64-6.67-19.37-15.48-26.19-26.43-6.83-10.95-10.56-24.68-11.19-41.19h64.29c0,7.31,1.5,13.57,4.52,18.81Z"/><path d="m2820.99,675.64c3.01,5.24,6.91,9.52,11.67,12.86s10.24,5.8,16.43,7.38c6.19,1.59,12.62,2.38,19.29,2.38,4.76,0,9.76-.55,15-1.67,5.24-1.11,10-2.86,14.29-5.24,4.29-2.38,7.86-5.55,10.71-9.52,2.86-3.97,4.29-8.97,4.29-15,0-10.16-6.75-17.78-20.24-22.86-13.5-5.07-32.31-10.16-56.43-15.24-9.84-2.22-19.45-4.84-28.81-7.86-9.37-3.01-17.7-6.98-25-11.91-7.31-4.92-13.18-11.11-17.62-18.57-4.45-7.46-6.67-16.59-6.67-27.38,0-15.87,3.09-28.88,9.29-39.05,6.19-10.16,14.36-18.17,24.52-24.05,10.16-5.87,21.58-10,34.29-12.38,12.69-2.38,25.71-3.57,39.05-3.57s26.27,1.27,38.81,3.81c12.54,2.54,23.73,6.83,33.57,12.86,9.84,6.03,18.01,14.05,24.52,24.05,6.5,10,10.39,22.62,11.67,37.86h-64.29c-.95-13.01-5.88-21.82-14.76-26.43-8.89-4.6-19.37-6.9-31.43-6.9-3.81,0-7.94.24-12.38.71-4.45.48-8.5,1.51-12.14,3.1-3.65,1.59-6.75,3.89-9.29,6.9-2.54,3.02-3.81,7.07-3.81,12.14,0,6.03,2.22,10.95,6.67,14.76,4.44,3.81,10.24,6.9,17.38,9.29,7.14,2.38,15.31,4.52,24.52,6.43,9.2,1.9,18.57,3.97,28.1,6.19,9.84,2.22,19.44,4.93,28.81,8.1,9.36,3.18,17.69,7.38,25,12.62,7.3,5.24,13.17,11.75,17.62,19.52,4.44,7.78,6.67,17.38,6.67,28.81,0,16.19-3.26,29.76-9.76,40.71-6.51,10.95-15,19.76-25.48,26.43-10.48,6.67-22.46,11.35-35.95,14.05-13.5,2.69-27.23,4.05-41.19,4.05s-28.26-1.43-41.91-4.29c-13.65-2.86-25.8-7.62-36.43-14.29-10.64-6.67-19.37-15.48-26.19-26.43-6.83-10.95-10.56-24.68-11.19-41.19h64.29c0,7.31,1.5,13.57,4.52,18.81Z"/></g><g><rect class="cls-2" x="285.73" y="283.38" width="566.91" height="566.91"/><g><path class="cls-1" d="m508.13,795.4c-8.03,5.29-16.73,7.85-26.1,7.85-14.72,0-23.42-9.8-23.42-22.93,0-17.66,16.23-27.02,49.69-30.79v-4.4c0-5.74-4.35-9.06-12.38-9.06s-14.55,3.18-19.23,9.06l-14.05-8c7.36-10.27,18.57-15.4,33.63-15.4,20.57,0,32.12,8.9,32.12,23.4,0,0-.03,57.06.02,57.2h-18.42l-1.84-6.94Zm-29.11-16.59c0,5.29,3.35,10.25,9.37,10.25,6.52,0,12.88-2.72,19.23-8.31v-18.69c-19.4,2.42-28.61,7.4-28.61,16.75Z"/><path class="cls-1" d="m544.79,725.5l17.18-2.37,1.89,9.36c9.7-7.1,17.4-10.87,27.1-10.87,16.23,0,24.6,8.61,24.6,25.66v54.94h-20.75v-51.32c0-9.66-2.5-14.03-10.04-14.03-6.19,0-12.38,2.87-19.41,8.76v56.6h-20.58v-76.72Z"/><path class="cls-1" d="m753.08,803.73c-23.25,0-37.14-14.94-37.14-40.9s14.05-41.21,36.8-41.21,36.3,14.49,36.3,40.16c0,1.36-.17,2.71-.17,4.07h-52.53c.16,14.95,6.36,22.49,18.57,22.49,7.86,0,13.04-3.17,17.9-10.11l15.22,8.45c-6.69,11.17-18.73,17.06-34.96,17.06Zm15.56-51.31c0-10.57-6.02-16.76-15.9-16.76-9.36,0-15.22,6.04-16.06,16.76h31.95Z"/><path class="cls-1" d="m355.5,804.59c-20.52,0-39.03-13.09-39.03-41.64s18.51-41.64,39.03-41.64,39.04,13.08,39.04,41.64-18.51,41.64-39.04,41.64Zm0-65.72c-15.5,0-18.37,13.98-18.37,24.09s2.87,24.09,18.37,24.09,18.38-13.97,18.38-24.09-2.87-24.09-18.38-24.09Z"/><path class="cls-1" d="m408.77,723.39h19.74v9.28c3.76-5,13.05-10.9,21.75-10.9.83,0,1.83,0,2.68.15v19.47h-1c-9.03,0-18.91,1.39-22.08,8.41v52.48h-21.08v-78.9Z"/><path class="cls-1" d="m666.4,785.34c15.76-.12,17.08-16.14,17.08-26.61,0-12.32-6.03-22.36-17.22-22.36-7.47,0-15.78,5.45-15.78,23.22,0,9.75.69,25.87,15.93,25.75Zm37.03-62.24v74.71c0,13.19-1,34.88-38.6,35.12-15.51.1-29.89-6.1-32.77-19.65l20.49-3.3c.86,3.88,3.23,7.75,14.85,7.75,10.76,0,15.93-5.16,15.93-17.49v-9.18l-.29-.28c-3.3,5.88-8.32,11.47-20.38,11.47-18.37,0-32.87-12.75-32.87-39.42s14.92-41.14,31.71-41.17c15.73-.02,21.59,7.15,22.92,10.93l-.24-.04,1.7-9.44h17.53Z"/><path class="cls-1" d="m797.2,696.94h-8.16v22.59h-4.3v-22.59h-8.16v-3.48h20.63v3.48Zm33.99,22.59h-4.31v-21.77h-.13l-8.54,21.77h-2.72l-8.54-21.77h-.13v21.77h-4.3v-26.07h6.64l7.78,19.8,7.65-19.8h6.59v26.07Z"/></g></g></svg>