<?xml version="1.0" encoding="utf-8"?>
<!-- Generator: Adobe Illustrator 16.0.0, SVG Export Plug-In . SVG Version: 6.00 Build 0)  -->
<!DOCTYPE svg PUBLIC "-//W3C//DTD SVG 1.1//EN" "http://www.w3.org/Graphics/SVG/1.1/DTD/svg11.dtd">
<svg version="1.1" id="Ebene_1" xmlns="http://www.w3.org/2000/svg" xmlns:xlink="http://www.w3.org/1999/xlink" x="0px" y="0px"
	 viewBox="0 0 379.843 212.598" enable-background="new 0 0 379.843 212.598"
	 xml:space="preserve">
<circle fill="#D6102A" cx="26.735" cy="148.157" r="0.865"/>
<circle fill="#D6102A" cx="33.651" cy="148.157" r="0.865"/>
<circle fill="#D6102A" cx="33.651" cy="120.573" r="0.865"/>
<circle fill="#D6102A" cx="40.566" cy="134.366" r="0.864"/>
<circle fill="#D6102A" cx="40.566" cy="127.47" r="0.864"/>
<circle fill="#D6102A" cx="40.566" cy="113.679" r="0.864"/>
<circle fill="#D6102A" cx="47.481" cy="127.47" r="0.864"/>
<circle fill="#D6102A" cx="47.481" cy="106.782" r="0.864"/>
<circle fill="#D6102A" cx="54.396" cy="120.573" r="0.864"/>
<circle fill="#D6102A" cx="54.396" cy="113.679" r="0.864"/>
<circle fill="#D6102A" cx="54.396" cy="106.782" r="0.864"/>
<path fill="#D6102A" d="M55.26,99.886c0,0.479-0.386,0.863-0.864,0.863c-0.478,0-0.864-0.385-0.864-0.863
	c0-0.473,0.387-0.861,0.864-0.861C54.875,99.024,55.26,99.413,55.26,99.886z"/>
<circle fill="#D6102A" cx="54.396" cy="92.991" r="0.864"/>
<circle fill="#D6102A" cx="54.396" cy="86.097" r="0.864"/>
<circle fill="#D6102A" cx="61.312" cy="120.573" r="0.865"/>
<circle fill="#D6102A" cx="61.312" cy="113.679" r="0.865"/>
<circle fill="#D6102A" cx="61.312" cy="106.782" r="0.865"/>
<path fill="#D6102A" d="M62.176,99.886c0,0.479-0.388,0.863-0.866,0.863c-0.476,0-0.863-0.385-0.863-0.863
	c0-0.473,0.388-0.861,0.863-0.861C61.789,99.024,62.176,99.413,62.176,99.886z"/>
<circle fill="#D6102A" cx="61.312" cy="92.991" r="0.865"/>
<circle fill="#D6102A" cx="61.312" cy="86.097" r="0.865"/>
<circle fill="#D6102A" cx="61.312" cy="79.2" r="0.865"/>
<circle fill="#D6102A" cx="68.226" cy="155.052" r="0.864"/>
<circle fill="#D6102A" cx="68.226" cy="141.261" r="0.864"/>
<circle fill="#D6102A" cx="68.226" cy="134.366" r="0.864"/>
<circle fill="#D6102A" cx="68.226" cy="127.47" r="0.864"/>
<circle fill="#D6102A" cx="68.226" cy="120.573" r="0.864"/>
<circle fill="#D6102A" cx="68.226" cy="113.679" r="0.864"/>
<circle fill="#D6102A" cx="68.226" cy="106.782" r="0.864"/>
<path fill="#D6102A" d="M69.09,99.886c0,0.479-0.387,0.863-0.864,0.863s-0.864-0.385-0.864-0.863c0-0.473,0.387-0.861,0.864-0.861
	S69.09,99.413,69.09,99.886z"/>
<circle fill="#D6102A" cx="68.226" cy="86.097" r="0.864"/>
<circle fill="#D6102A" cx="68.226" cy="79.2" r="0.864"/>
<circle fill="#D6102A" cx="68.226" cy="72.304" r="0.864"/>
<circle fill="#D6102A" cx="75.142" cy="161.948" r="0.864"/>
<circle fill="#D6102A" cx="75.142" cy="155.052" r="0.864"/>
<circle fill="#D6102A" cx="75.142" cy="148.157" r="0.864"/>
<circle fill="#D6102A" cx="75.142" cy="141.261" r="0.864"/>
<circle fill="#D6102A" cx="75.142" cy="134.366" r="0.864"/>
<circle fill="#D6102A" cx="75.142" cy="127.47" r="0.864"/>
<circle fill="#D6102A" cx="75.142" cy="120.573" r="0.864"/>
<circle fill="#D6102A" cx="75.142" cy="113.679" r="0.864"/>
<circle fill="#D6102A" cx="75.142" cy="106.782" r="0.864"/>
<path fill="#D6102A" d="M76.006,99.886c0,0.479-0.387,0.863-0.865,0.863c-0.478,0-0.863-0.385-0.863-0.863
	c0-0.473,0.386-0.861,0.863-0.861C75.62,99.024,76.006,99.413,76.006,99.886z"/>
<circle fill="#D6102A" cx="75.142" cy="92.991" r="0.864"/>
<circle fill="#D6102A" cx="75.142" cy="86.097" r="0.864"/>
<circle fill="#D6102A" cx="75.142" cy="79.2" r="0.864"/>
<circle fill="#D6102A" cx="75.142" cy="72.304" r="0.864"/>
<circle fill="#D6102A" cx="75.142" cy="58.513" r="0.864"/>
<circle fill="#D6102A" cx="82.058" cy="168.845" r="0.864"/>
<circle fill="#D6102A" cx="82.058" cy="161.948" r="0.864"/>
<circle fill="#D6102A" cx="82.058" cy="155.052" r="0.864"/>
<circle fill="#D6102A" cx="82.058" cy="148.157" r="0.864"/>
<circle fill="#D6102A" cx="82.058" cy="141.261" r="0.864"/>
<circle fill="#D6102A" cx="82.058" cy="134.366" r="0.864"/>
<circle fill="#D6102A" cx="82.058" cy="127.47" r="0.864"/>
<circle fill="#D6102A" cx="82.058" cy="120.573" r="0.864"/>
<circle fill="#D6102A" cx="82.058" cy="113.679" r="0.864"/>
<circle fill="#D6102A" cx="82.058" cy="106.782" r="0.864"/>
<path fill="#D6102A" d="M82.922,99.886c0,0.479-0.388,0.863-0.865,0.863c-0.479,0-0.863-0.385-0.863-0.863
	c0-0.473,0.385-0.861,0.863-0.861C82.535,99.024,82.922,99.413,82.922,99.886z"/>
<circle fill="#D6102A" cx="82.058" cy="92.991" r="0.864"/>
<circle fill="#D6102A" cx="82.058" cy="86.097" r="0.864"/>
<circle fill="#D6102A" cx="82.058" cy="79.2" r="0.864"/>
<circle fill="#D6102A" cx="82.058" cy="72.304" r="0.864"/>
<circle fill="#D6102A" cx="82.058" cy="58.513" r="0.864"/>
<circle fill="#D6102A" cx="88.973" cy="161.948" r="0.864"/>
<circle fill="#D6102A" cx="88.973" cy="155.052" r="0.864"/>
<circle fill="#D6102A" cx="88.973" cy="148.157" r="0.864"/>
<circle fill="#D6102A" cx="88.973" cy="141.261" r="0.864"/>
<circle fill="#D6102A" cx="88.973" cy="134.366" r="0.864"/>
<circle fill="#D6102A" cx="88.973" cy="120.573" r="0.864"/>
<circle fill="#D6102A" cx="88.973" cy="113.679" r="0.864"/>
<circle fill="#D6102A" cx="88.973" cy="106.782" r="0.864"/>
<path fill="#D6102A" d="M89.837,99.886c0,0.479-0.387,0.863-0.865,0.863c-0.478,0-0.863-0.385-0.863-0.863
	c0-0.473,0.386-0.861,0.863-0.861C89.451,99.024,89.837,99.413,89.837,99.886z"/>
<circle fill="#D6102A" cx="88.973" cy="92.991" r="0.864"/>
<circle fill="#D6102A" cx="88.973" cy="86.097" r="0.864"/>
<circle fill="#D6102A" cx="88.973" cy="79.2" r="0.864"/>
<circle fill="#D6102A" cx="88.973" cy="72.304" r="0.864"/>
<circle fill="#D6102A" cx="95.888" cy="155.052" r="0.865"/>
<circle fill="#D6102A" cx="95.888" cy="148.157" r="0.865"/>
<circle fill="#D6102A" cx="95.888" cy="141.261" r="0.865"/>
<circle fill="#D6102A" cx="95.888" cy="134.366" r="0.865"/>
<circle fill="#D6102A" cx="95.888" cy="127.47" r="0.865"/>
<circle fill="#D6102A" cx="95.888" cy="120.573" r="0.865"/>
<circle fill="#D6102A" cx="95.888" cy="113.679" r="0.865"/>
<circle fill="#D6102A" cx="95.888" cy="106.782" r="0.865"/>
<path fill="#D6102A" d="M96.752,99.886c0,0.479-0.388,0.863-0.866,0.863c-0.476,0-0.863-0.385-0.863-0.863
	c0-0.473,0.388-0.861,0.863-0.861C96.365,99.024,96.752,99.413,96.752,99.886z"/>
<circle fill="#D6102A" cx="95.888" cy="92.991" r="0.865"/>
<circle fill="#D6102A" cx="95.888" cy="86.097" r="0.865"/>
<circle fill="#D6102A" cx="95.888" cy="79.2" r="0.865"/>
<circle fill="#D6102A" cx="95.888" cy="72.304" r="0.865"/>
<circle fill="#D6102A" cx="95.888" cy="65.409" r="0.865"/>
<circle fill="#D6102A" cx="95.888" cy="58.513" r="0.865"/>
<circle fill="#D6102A" cx="95.888" cy="51.618" r="0.865"/>
<circle fill="#D6102A" cx="102.802" cy="155.052" r="0.864"/>
<circle fill="#D6102A" cx="102.802" cy="148.157" r="0.864"/>
<circle fill="#D6102A" cx="102.802" cy="141.261" r="0.864"/>
<circle fill="#D6102A" cx="102.802" cy="134.366" r="0.864"/>
<circle fill="#D6102A" cx="102.802" cy="127.47" r="0.864"/>
<circle fill="#D6102A" cx="102.802" cy="120.573" r="0.864"/>
<circle fill="#D6102A" cx="102.802" cy="113.679" r="0.864"/>
<circle fill="#D6102A" cx="102.802" cy="106.782" r="0.864"/>
<path fill="#D6102A" d="M103.667,99.886c0,0.479-0.387,0.863-0.864,0.863s-0.864-0.385-0.864-0.863c0-0.473,0.387-0.861,0.864-0.861
	S103.667,99.413,103.667,99.886z"/>
<circle fill="#D6102A" cx="102.802" cy="92.991" r="0.864"/>
<circle fill="#D6102A" cx="102.802" cy="86.097" r="0.864"/>
<circle fill="#D6102A" cx="102.802" cy="79.2" r="0.864"/>
<circle fill="#D6102A" cx="102.802" cy="72.304" r="0.864"/>
<circle fill="#D6102A" cx="102.802" cy="65.409" r="0.864"/>
<circle fill="#D6102A" cx="102.802" cy="58.513" r="0.864"/>
<circle fill="#D6102A" cx="102.802" cy="51.618" r="0.864"/>
<circle fill="#D6102A" cx="102.802" cy="44.724" r="0.864"/>
<circle fill="#D6102A" cx="109.718" cy="161.948" r="0.864"/>
<circle fill="#D6102A" cx="109.718" cy="155.052" r="0.864"/>
<circle fill="#D6102A" cx="109.718" cy="148.157" r="0.864"/>
<circle fill="#D6102A" cx="109.718" cy="141.261" r="0.864"/>
<circle fill="#D6102A" cx="109.718" cy="134.366" r="0.864"/>
<circle fill="#D6102A" cx="109.718" cy="127.47" r="0.864"/>
<circle fill="#D6102A" cx="109.718" cy="120.573" r="0.864"/>
<circle fill="#D6102A" cx="109.718" cy="113.679" r="0.864"/>
<path fill="#D6102A" d="M110.583,99.886c0,0.479-0.388,0.863-0.864,0.863c-0.478,0-0.864-0.385-0.864-0.863
	c0-0.473,0.387-0.861,0.864-0.861C110.195,99.024,110.583,99.413,110.583,99.886z"/>
<circle fill="#D6102A" cx="109.718" cy="92.991" r="0.864"/>
<circle fill="#D6102A" cx="109.718" cy="86.097" r="0.864"/>
<circle fill="#D6102A" cx="109.718" cy="79.2" r="0.864"/>
<circle fill="#D6102A" cx="109.718" cy="72.304" r="0.864"/>
<circle fill="#D6102A" cx="116.633" cy="155.052" r="0.865"/>
<circle fill="#D6102A" cx="116.633" cy="148.157" r="0.865"/>
<circle fill="#D6102A" cx="116.633" cy="141.261" r="0.865"/>
<circle fill="#D6102A" cx="116.633" cy="134.366" r="0.865"/>
<circle fill="#D6102A" cx="116.633" cy="127.47" r="0.865"/>
<circle fill="#D6102A" cx="116.633" cy="120.573" r="0.865"/>
<circle fill="#D6102A" cx="116.633" cy="113.679" r="0.865"/>
<circle fill="#D6102A" cx="116.633" cy="106.782" r="0.865"/>
<path fill="#D6102A" d="M117.499,99.886c0,0.479-0.387,0.863-0.865,0.863c-0.477,0-0.865-0.385-0.865-0.863
	c0-0.473,0.389-0.861,0.865-0.861C117.112,99.024,117.499,99.413,117.499,99.886z"/>
<circle fill="#D6102A" cx="116.633" cy="92.991" r="0.865"/>
<circle fill="#D6102A" cx="116.633" cy="86.097" r="0.865"/>
<circle fill="#D6102A" cx="116.633" cy="79.2" r="0.865"/>
<circle fill="#D6102A" cx="116.633" cy="72.304" r="0.865"/>
<circle fill="#D6102A" cx="123.548" cy="148.157" r="0.864"/>
<circle fill="#D6102A" cx="123.548" cy="141.261" r="0.864"/>
<circle fill="#D6102A" cx="123.548" cy="134.366" r="0.864"/>
<circle fill="#D6102A" cx="123.548" cy="127.47" r="0.864"/>
<circle fill="#D6102A" cx="123.548" cy="120.573" r="0.864"/>
<circle fill="#D6102A" cx="123.548" cy="113.679" r="0.864"/>
<circle fill="#D6102A" cx="123.548" cy="106.782" r="0.864"/>
<path fill="#D6102A" d="M124.413,99.886c0,0.479-0.386,0.863-0.865,0.863c-0.477,0-0.863-0.385-0.863-0.863
	c0-0.473,0.387-0.861,0.863-0.861C124.027,99.024,124.413,99.413,124.413,99.886z"/>
<circle fill="#D6102A" cx="123.548" cy="92.991" r="0.864"/>
<circle fill="#D6102A" cx="123.548" cy="86.097" r="0.864"/>
<circle fill="#D6102A" cx="123.548" cy="79.2" r="0.864"/>
<circle fill="#D6102A" cx="123.548" cy="72.304" r="0.864"/>
<circle fill="#D6102A" cx="123.548" cy="65.409" r="0.864"/>
<circle fill="#D6102A" cx="123.548" cy="58.513" r="0.864"/>
<circle fill="#D6102A" cx="130.463" cy="106.782" r="0.865"/>
<path fill="#D6102A" d="M131.329,99.886c0,0.479-0.388,0.863-0.865,0.863c-0.477,0-0.865-0.385-0.865-0.863
	c0-0.473,0.389-0.861,0.865-0.861C130.941,99.024,131.329,99.413,131.329,99.886z"/>
<circle fill="#D6102A" cx="130.463" cy="92.991" r="0.865"/>
<circle fill="#D6102A" cx="130.463" cy="86.097" r="0.865"/>
<circle fill="#D6102A" cx="130.463" cy="79.2" r="0.865"/>
<circle fill="#D6102A" cx="130.463" cy="72.304" r="0.865"/>
<circle fill="#D6102A" cx="130.463" cy="65.409" r="0.865"/>
<circle fill="#D6102A" cx="130.463" cy="58.513" r="0.865"/>
<circle fill="#D6102A" cx="137.378" cy="106.782" r="0.864"/>
<path fill="#D6102A" d="M138.243,99.886c0,0.479-0.387,0.863-0.863,0.863c-0.479,0-0.865-0.385-0.865-0.863
	c0-0.473,0.387-0.861,0.865-0.861C137.856,99.024,138.243,99.413,138.243,99.886z"/>
<circle fill="#D6102A" cx="137.378" cy="92.991" r="0.864"/>
<circle fill="#D6102A" cx="137.378" cy="86.097" r="0.864"/>
<circle fill="#D6102A" cx="137.378" cy="79.2" r="0.864"/>
<circle fill="#D6102A" cx="137.378" cy="72.304" r="0.864"/>
<circle fill="#D6102A" cx="137.378" cy="65.409" r="0.864"/>
<circle fill="#D6102A" cx="137.378" cy="58.513" r="0.864"/>
<circle fill="#D6102A" cx="137.378" cy="37.827" r="0.864"/>
<circle fill="#D6102A" cx="137.378" cy="30.933" r="0.864"/>
<circle fill="#D6102A" cx="144.293" cy="134.366" r="0.863"/>
<circle fill="#D6102A" cx="144.293" cy="127.47" r="0.863"/>
<circle fill="#D6102A" cx="144.293" cy="120.573" r="0.863"/>
<circle fill="#D6102A" cx="144.293" cy="113.679" r="0.863"/>
<circle fill="#D6102A" cx="144.293" cy="92.991" r="0.863"/>
<circle fill="#D6102A" cx="144.293" cy="79.2" r="0.863"/>
<circle fill="#D6102A" cx="144.293" cy="72.304" r="0.863"/>
<circle fill="#D6102A" cx="144.293" cy="65.409" r="0.863"/>
<circle fill="#D6102A" cx="144.293" cy="58.513" r="0.863"/>
<circle fill="#D6102A" cx="144.293" cy="51.618" r="0.863"/>
<circle fill="#D6102A" cx="144.293" cy="44.724" r="0.863"/>
<circle fill="#D6102A" cx="144.293" cy="37.827" r="0.863"/>
<circle fill="#D6102A" cx="144.293" cy="30.933" r="0.863"/>
<circle fill="#D6102A" cx="151.209" cy="148.157" r="0.865"/>
<circle fill="#D6102A" cx="151.209" cy="141.261" r="0.865"/>
<circle fill="#D6102A" cx="151.209" cy="134.366" r="0.865"/>
<circle fill="#D6102A" cx="151.209" cy="127.47" r="0.865"/>
<circle fill="#D6102A" cx="151.209" cy="120.573" r="0.865"/>
<circle fill="#D6102A" cx="151.209" cy="113.679" r="0.865"/>
<circle fill="#D6102A" cx="151.209" cy="106.782" r="0.865"/>
<path fill="#D6102A" d="M152.075,99.886c0,0.479-0.388,0.863-0.867,0.863c-0.477,0-0.863-0.385-0.863-0.863
	c0-0.473,0.387-0.861,0.863-0.861C151.687,99.024,152.075,99.413,152.075,99.886z"/>
<circle fill="#D6102A" cx="151.209" cy="92.991" r="0.865"/>
<circle fill="#D6102A" cx="151.209" cy="86.097" r="0.865"/>
<circle fill="#D6102A" cx="151.209" cy="79.2" r="0.865"/>
<circle fill="#D6102A" cx="151.209" cy="72.304" r="0.865"/>
<circle fill="#D6102A" cx="151.209" cy="65.409" r="0.865"/>
<circle fill="#D6102A" cx="151.209" cy="58.513" r="0.865"/>
<circle fill="#D6102A" cx="151.209" cy="51.618" r="0.865"/>
<circle fill="#D6102A" cx="151.209" cy="44.724" r="0.865"/>
<circle fill="#D6102A" cx="151.209" cy="37.827" r="0.865"/>
<circle fill="#D6102A" cx="158.125" cy="155.052" r="0.864"/>
<circle fill="#D6102A" cx="158.125" cy="148.157" r="0.864"/>
<circle fill="#D6102A" cx="158.125" cy="141.261" r="0.864"/>
<circle fill="#D6102A" cx="158.125" cy="134.366" r="0.864"/>
<circle fill="#D6102A" cx="158.125" cy="127.47" r="0.864"/>
<circle fill="#D6102A" cx="158.125" cy="120.573" r="0.864"/>
<circle fill="#D6102A" cx="158.125" cy="113.679" r="0.864"/>
<circle fill="#D6102A" cx="158.125" cy="106.782" r="0.864"/>
<path fill="#D6102A" d="M158.989,99.886c0,0.479-0.386,0.863-0.865,0.863c-0.477,0-0.863-0.385-0.863-0.863
	c0-0.473,0.387-0.861,0.863-0.861C158.603,99.024,158.989,99.413,158.989,99.886z"/>
<circle fill="#D6102A" cx="158.125" cy="92.991" r="0.864"/>
<circle fill="#D6102A" cx="158.125" cy="86.097" r="0.864"/>
<circle fill="#D6102A" cx="158.125" cy="79.2" r="0.864"/>
<circle fill="#D6102A" cx="158.125" cy="72.304" r="0.864"/>
<circle fill="#D6102A" cx="158.125" cy="65.409" r="0.864"/>
<circle fill="#D6102A" cx="158.125" cy="58.513" r="0.864"/>
<circle fill="#D6102A" cx="158.125" cy="51.618" r="0.864"/>
<circle fill="#D6102A" cx="158.125" cy="44.724" r="0.864"/>
<circle fill="#D6102A" cx="158.125" cy="37.827" r="0.864"/>
<circle fill="#D6102A" cx="165.04" cy="168.845" r="0.865"/>
<circle fill="#D6102A" cx="165.04" cy="161.948" r="0.865"/>
<circle fill="#D6102A" cx="165.04" cy="155.052" r="0.865"/>
<circle fill="#D6102A" cx="165.04" cy="148.157" r="0.865"/>
<circle fill="#D6102A" cx="165.04" cy="141.261" r="0.865"/>
<circle fill="#D6102A" cx="165.04" cy="134.366" r="0.865"/>
<circle fill="#D6102A" cx="165.04" cy="127.47" r="0.865"/>
<circle fill="#D6102A" cx="165.04" cy="120.573" r="0.865"/>
<circle fill="#D6102A" cx="165.04" cy="113.679" r="0.865"/>
<circle fill="#D6102A" cx="165.04" cy="106.782" r="0.865"/>
<path fill="#D6102A" d="M165.905,99.886c0,0.479-0.389,0.863-0.865,0.863s-0.864-0.385-0.864-0.863c0-0.473,0.388-0.861,0.864-0.861
	S165.905,99.413,165.905,99.886z"/>
<circle fill="#D6102A" cx="165.04" cy="92.991" r="0.865"/>
<circle fill="#D6102A" cx="165.04" cy="86.097" r="0.865"/>
<circle fill="#D6102A" cx="165.04" cy="79.2" r="0.865"/>
<circle fill="#D6102A" cx="165.04" cy="72.304" r="0.865"/>
<circle fill="#D6102A" cx="165.04" cy="65.409" r="0.865"/>
<circle fill="#D6102A" cx="165.04" cy="58.513" r="0.865"/>
<circle fill="#D6102A" cx="165.04" cy="51.618" r="0.865"/>
<circle fill="#D6102A" cx="165.04" cy="44.724" r="0.865"/>
<circle fill="#D6102A" cx="171.955" cy="148.157" r="0.864"/>
<circle fill="#D6102A" cx="171.955" cy="141.261" r="0.864"/>
<circle fill="#D6102A" cx="171.955" cy="134.366" r="0.864"/>
<circle fill="#D6102A" cx="171.955" cy="127.47" r="0.864"/>
<circle fill="#D6102A" cx="171.955" cy="120.573" r="0.864"/>
<circle fill="#D6102A" cx="171.955" cy="113.679" r="0.864"/>
<path fill="#D6102A" d="M172.819,99.886c0,0.479-0.387,0.863-0.863,0.863c-0.479,0-0.865-0.385-0.865-0.863
	c0-0.473,0.387-0.861,0.865-0.861C172.432,99.024,172.819,99.413,172.819,99.886z"/>
<circle fill="#D6102A" cx="171.955" cy="86.097" r="0.864"/>
<circle fill="#D6102A" cx="171.955" cy="79.2" r="0.864"/>
<circle fill="#D6102A" cx="171.955" cy="72.304" r="0.864"/>
<circle fill="#D6102A" cx="171.955" cy="65.409" r="0.864"/>
<circle fill="#D6102A" cx="171.955" cy="58.513" r="0.864"/>
<circle fill="#D6102A" cx="171.955" cy="51.618" r="0.864"/>
<circle fill="#D6102A" cx="171.955" cy="44.724" r="0.864"/>
<circle fill="#D6102A" cx="178.871" cy="141.261" r="0.864"/>
<circle fill="#D6102A" cx="178.871" cy="134.366" r="0.864"/>
<circle fill="#D6102A" cx="178.871" cy="127.47" r="0.864"/>
<circle fill="#D6102A" cx="178.871" cy="120.573" r="0.864"/>
<circle fill="#D6102A" cx="178.871" cy="113.679" r="0.864"/>
<circle fill="#D6102A" cx="178.871" cy="106.782" r="0.864"/>
<path fill="#D6102A" d="M179.735,99.886c0,0.479-0.387,0.863-0.865,0.863c-0.477,0-0.863-0.385-0.863-0.863
	c0-0.473,0.387-0.861,0.863-0.861C179.348,99.024,179.735,99.413,179.735,99.886z"/>
<circle fill="#D6102A" cx="178.871" cy="92.991" r="0.864"/>
<circle fill="#D6102A" cx="178.871" cy="86.097" r="0.864"/>
<circle fill="#D6102A" cx="178.871" cy="79.2" r="0.864"/>
<circle fill="#D6102A" cx="178.871" cy="72.304" r="0.864"/>
<circle fill="#D6102A" cx="178.871" cy="65.409" r="0.864"/>
<circle fill="#D6102A" cx="178.871" cy="58.513" r="0.864"/>
<circle fill="#D6102A" cx="178.871" cy="51.618" r="0.864"/>
<circle fill="#D6102A" cx="178.871" cy="44.724" r="0.864"/>
<circle fill="#D6102A" cx="185.785" cy="120.573" r="0.864"/>
<circle fill="#D6102A" cx="185.785" cy="113.679" r="0.864"/>
<circle fill="#D6102A" cx="185.785" cy="106.782" r="0.864"/>
<path fill="#D6102A" d="M186.649,99.886c0,0.479-0.386,0.863-0.864,0.863c-0.478,0-0.864-0.385-0.864-0.863
	c0-0.473,0.387-0.861,0.864-0.861C186.263,99.024,186.649,99.413,186.649,99.886z"/>
<circle fill="#D6102A" cx="185.785" cy="92.991" r="0.864"/>
<circle fill="#D6102A" cx="185.785" cy="86.097" r="0.864"/>
<circle fill="#D6102A" cx="185.785" cy="79.2" r="0.864"/>
<circle fill="#D6102A" cx="185.785" cy="72.304" r="0.864"/>
<circle fill="#D6102A" cx="185.785" cy="65.409" r="0.864"/>
<circle fill="#D6102A" cx="185.785" cy="58.513" r="0.864"/>
<circle fill="#D6102A" cx="185.785" cy="51.618" r="0.864"/>
<circle fill="#D6102A" cx="192.701" cy="134.366" r="0.864"/>
<circle fill="#D6102A" cx="192.701" cy="127.47" r="0.864"/>
<circle fill="#D6102A" cx="192.701" cy="120.573" r="0.864"/>
<circle fill="#D6102A" cx="192.701" cy="113.679" r="0.864"/>
<circle fill="#D6102A" cx="192.701" cy="106.782" r="0.864"/>
<path fill="#D6102A" d="M193.565,99.886c0,0.479-0.386,0.863-0.865,0.863c-0.477,0-0.863-0.385-0.863-0.863
	c0-0.473,0.387-0.861,0.863-0.861C193.179,99.024,193.565,99.413,193.565,99.886z"/>
<circle fill="#D6102A" cx="192.701" cy="92.991" r="0.864"/>
<circle fill="#D6102A" cx="192.701" cy="86.097" r="0.864"/>
<circle fill="#D6102A" cx="192.701" cy="79.2" r="0.864"/>
<circle fill="#D6102A" cx="192.701" cy="65.409" r="0.864"/>
<circle fill="#D6102A" cx="192.701" cy="58.513" r="0.864"/>
<circle fill="#D6102A" cx="199.616" cy="134.366" r="0.865"/>
<circle fill="#D6102A" cx="199.616" cy="127.47" r="0.865"/>
<circle fill="#D6102A" cx="199.616" cy="120.573" r="0.865"/>
<circle fill="#D6102A" cx="199.616" cy="113.679" r="0.865"/>
<circle fill="#D6102A" cx="199.616" cy="106.782" r="0.865"/>
<path fill="#D6102A" d="M200.481,99.886c0,0.479-0.389,0.863-0.865,0.863c-0.479,0-0.864-0.385-0.864-0.863
	c0-0.473,0.386-0.861,0.864-0.861C200.092,99.024,200.481,99.413,200.481,99.886z"/>
<circle fill="#D6102A" cx="199.616" cy="92.991" r="0.865"/>
<circle fill="#D6102A" cx="199.616" cy="86.097" r="0.865"/>
<circle fill="#D6102A" cx="206.53" cy="127.47" r="0.864"/>
<circle fill="#D6102A" cx="206.53" cy="120.573" r="0.864"/>
<circle fill="#D6102A" cx="206.53" cy="113.679" r="0.864"/>
<circle fill="#D6102A" cx="206.53" cy="106.782" r="0.864"/>
<path fill="#D6102A" d="M207.394,99.886c0,0.479-0.388,0.863-0.862,0.863c-0.479,0-0.865-0.385-0.865-0.863
	c0-0.473,0.387-0.861,0.865-0.861C207.006,99.024,207.394,99.413,207.394,99.886z"/>
<circle fill="#D6102A" cx="206.53" cy="92.991" r="0.864"/>
<circle fill="#D6102A" cx="206.53" cy="86.097" r="0.864"/>
<circle fill="#D6102A" cx="213.444" cy="141.261" r="0.865"/>
<circle fill="#D6102A" cx="213.444" cy="134.366" r="0.865"/>
<circle fill="#D6102A" cx="213.444" cy="127.47" r="0.865"/>
<circle fill="#D6102A" cx="213.444" cy="120.573" r="0.865"/>
<circle fill="#D6102A" cx="213.444" cy="113.679" r="0.865"/>
<circle fill="#D6102A" cx="213.444" cy="106.782" r="0.865"/>
<path fill="#D6102A" d="M214.309,99.886c0,0.479-0.387,0.863-0.862,0.863c-0.478,0-0.867-0.385-0.867-0.863
	c0-0.473,0.39-0.861,0.867-0.861C213.922,99.024,214.309,99.413,214.309,99.886z"/>
<circle fill="#D6102A" cx="220.36" cy="141.261" r="0.865"/>
<circle fill="#D6102A" cx="220.36" cy="134.366" r="0.865"/>
<circle fill="#D6102A" cx="220.36" cy="127.47" r="0.865"/>
<circle fill="#D6102A" cx="220.36" cy="106.782" r="0.865"/>
<circle fill="#D6102A" cx="220.36" cy="113.679" r="0.865"/>
<path fill="#D6102A" d="M221.225,99.886c0,0.479-0.387,0.863-0.864,0.863s-0.866-0.385-0.866-0.863c0-0.473,0.389-0.861,0.866-0.861
	S221.225,99.413,221.225,99.886z"/>
<circle fill="#D6102A" cx="220.36" cy="92.991" r="0.865"/>
<circle fill="#D6102A" cx="227.277" cy="113.679" r="0.864"/>
<circle fill="#D6102A" cx="227.277" cy="106.782" r="0.864"/>
<path fill="#D6102A" d="M228.141,99.886c0,0.479-0.388,0.863-0.865,0.863c-0.479,0-0.863-0.385-0.863-0.863
	c0-0.473,0.385-0.861,0.863-0.861C227.753,99.024,228.141,99.413,228.141,99.886z"/>
<circle fill="#D6102A" cx="227.277" cy="92.991" r="0.864"/>
<circle fill="#D6102A" cx="227.277" cy="86.097" r="0.864"/>
<circle fill="#D6102A" cx="234.192" cy="113.679" r="0.865"/>
<path fill="#D6102A" d="M235.057,99.886c0,0.479-0.388,0.863-0.866,0.863c-0.476,0-0.863-0.385-0.863-0.863
	c0-0.473,0.388-0.861,0.863-0.861C234.669,99.024,235.057,99.413,235.057,99.886z"/>
<ellipse fill="#D6102A" cx="26.735" cy="148.157" rx="1.729" ry="1.723"/>
<circle fill="#D6102A" cx="26.735" cy="141.261" r="1.729"/>
<path fill="#D6102A" d="M35.379,148.157c0,0.951-0.771,1.723-1.729,1.723c-0.954,0-1.727-0.771-1.727-1.723s0.772-1.725,1.727-1.725
	C34.608,146.433,35.379,147.206,35.379,148.157z"/>
<path fill="#D6102A" d="M35.379,141.261c0,0.953-0.771,1.725-1.729,1.725c-0.954,0-1.727-0.771-1.727-1.725
	c0-0.951,0.772-1.723,1.727-1.723C34.608,139.538,35.379,140.31,35.379,141.261z"/>
<path fill="#D6102A" d="M35.379,134.366c0,0.953-0.771,1.725-1.729,1.725c-0.954,0-1.727-0.771-1.727-1.725s0.772-1.723,1.727-1.723
	C34.608,132.644,35.379,133.413,35.379,134.366z"/>
<path fill="#D6102A" d="M35.379,127.47c0,0.953-0.771,1.723-1.729,1.723c-0.954,0-1.727-0.77-1.727-1.723
	c0-0.951,0.772-1.723,1.727-1.723C34.608,125.747,35.379,126.519,35.379,127.47z"/>
<circle fill="#D6102A" cx="40.566" cy="141.261" r="1.729"/>
<circle fill="#D6102A" cx="40.566" cy="120.573" r="1.729"/>
<circle fill="#D6102A" cx="47.482" cy="120.573" r="1.729"/>
<circle fill="#D6102A" cx="47.482" cy="113.679" r="1.729"/>
<path fill="#D6102A" d="M49.211,99.886c0,0.953-0.775,1.727-1.731,1.727c-0.954,0-1.728-0.773-1.728-1.727
	c0-0.951,0.773-1.723,1.728-1.723C48.436,98.163,49.211,98.935,49.211,99.886z"/>
<circle fill="#D6102A" cx="47.482" cy="92.991" r="1.729"/>
<circle fill="#D6102A" cx="54.396" cy="120.573" r="1.729"/>
<circle fill="#D6102A" cx="54.396" cy="113.679" r="1.729"/>
<circle fill="#D6102A" cx="61.311" cy="120.573" r="1.729"/>
<circle fill="#D6102A" cx="61.311" cy="113.679" r="1.729"/>
<circle fill="#D6102A" cx="61.311" cy="106.782" r="1.729"/>
<circle fill="#D6102A" cx="61.311" cy="99.886" r="1.729"/>
<circle fill="#D6102A" cx="68.227" cy="155.052" r="1.729"/>
<ellipse fill="#D6102A" cx="68.227" cy="148.157" rx="1.729" ry="1.723"/>
<circle fill="#D6102A" cx="68.227" cy="141.261" r="1.729"/>
<circle fill="#D6102A" cx="68.227" cy="134.366" r="1.729"/>
<ellipse fill="#D6102A" cx="68.227" cy="127.47" rx="1.729" ry="1.723"/>
<circle fill="#D6102A" cx="68.227" cy="120.573" r="1.729"/>
<circle fill="#D6102A" cx="68.227" cy="113.679" r="1.729"/>
<circle fill="#D6102A" cx="68.227" cy="106.782" r="1.729"/>
<circle fill="#D6102A" cx="68.227" cy="99.886" r="1.729"/>
<ellipse fill="#D6102A" cx="68.227" cy="65.409" rx="1.729" ry="1.723"/>
<ellipse fill="#D6102A" cx="68.227" cy="58.513" rx="1.729" ry="1.723"/>
<ellipse fill="#D6102A" cx="75.141" cy="161.948" rx="1.729" ry="1.723"/>
<circle fill="#D6102A" cx="75.141" cy="155.052" r="1.729"/>
<ellipse fill="#D6102A" cx="75.141" cy="148.157" rx="1.729" ry="1.723"/>
<circle fill="#D6102A" cx="75.141" cy="141.261" r="1.729"/>
<circle fill="#D6102A" cx="75.141" cy="134.366" r="1.729"/>
<ellipse fill="#D6102A" cx="75.141" cy="127.47" rx="1.729" ry="1.723"/>
<circle fill="#D6102A" cx="75.141" cy="120.573" r="1.729"/>
<circle fill="#D6102A" cx="75.141" cy="106.782" r="1.729"/>
<circle fill="#D6102A" cx="75.141" cy="99.886" r="1.729"/>
<ellipse fill="#D6102A" cx="75.141" cy="65.409" rx="1.729" ry="1.723"/>
<circle fill="#D6102A" cx="75.141" cy="51.618" r="1.729"/>
<ellipse fill="#D6102A" cx="82.057" cy="168.845" rx="1.729" ry="1.723"/>
<ellipse fill="#D6102A" cx="82.057" cy="161.948" rx="1.729" ry="1.723"/>
<circle fill="#D6102A" cx="82.057" cy="155.052" r="1.729"/>
<ellipse fill="#D6102A" cx="82.057" cy="148.157" rx="1.729" ry="1.723"/>
<circle fill="#D6102A" cx="82.057" cy="141.261" r="1.729"/>
<circle fill="#D6102A" cx="82.057" cy="134.366" r="1.729"/>
<ellipse fill="#D6102A" cx="82.057" cy="127.47" rx="1.729" ry="1.723"/>
<circle fill="#D6102A" cx="82.057" cy="120.573" r="1.729"/>
<circle fill="#D6102A" cx="82.057" cy="113.679" r="1.729"/>
<circle fill="#D6102A" cx="82.057" cy="106.782" r="1.729"/>
<circle fill="#D6102A" cx="82.057" cy="99.886" r="1.729"/>
<ellipse fill="#D6102A" cx="82.057" cy="65.409" rx="1.729" ry="1.723"/>
<circle fill="#D6102A" cx="82.057" cy="51.618" r="1.729"/>
<ellipse fill="#D6102A" cx="88.972" cy="161.948" rx="1.729" ry="1.723"/>
<circle fill="#D6102A" cx="88.972" cy="155.052" r="1.729"/>
<ellipse fill="#D6102A" cx="88.972" cy="148.157" rx="1.729" ry="1.723"/>
<circle fill="#D6102A" cx="88.972" cy="141.261" r="1.729"/>
<circle fill="#D6102A" cx="88.972" cy="134.366" r="1.729"/>
<ellipse fill="#D6102A" cx="88.972" cy="127.47" rx="1.729" ry="1.723"/>
<circle fill="#D6102A" cx="88.972" cy="120.573" r="1.729"/>
<circle fill="#D6102A" cx="88.972" cy="113.679" r="1.729"/>
<circle fill="#D6102A" cx="88.972" cy="106.782" r="1.729"/>
<circle fill="#D6102A" cx="88.972" cy="99.886" r="1.729"/>
<ellipse fill="#D6102A" cx="88.972" cy="65.409" rx="1.729" ry="1.723"/>
<ellipse fill="#D6102A" cx="88.972" cy="58.513" rx="1.729" ry="1.723"/>
<circle fill="#D6102A" cx="95.887" cy="155.052" r="1.729"/>
<circle fill="#D6102A" cx="95.887" cy="120.573" r="1.729"/>
<circle fill="#D6102A" cx="95.887" cy="113.679" r="1.729"/>
<circle fill="#D6102A" cx="95.887" cy="106.782" r="1.729"/>
<circle fill="#D6102A" cx="95.887" cy="99.886" r="1.729"/>
<ellipse fill="#D6102A" cx="95.887" cy="65.409" rx="1.729" ry="1.723"/>
<ellipse fill="#D6102A" cx="95.887" cy="58.513" rx="1.729" ry="1.723"/>
<circle fill="#D6102A" cx="95.887" cy="51.618" r="1.729"/>
<circle fill="#D6102A" cx="102.803" cy="155.052" r="1.729"/>
<circle fill="#D6102A" cx="102.803" cy="120.573" r="1.729"/>
<circle fill="#D6102A" cx="102.803" cy="113.679" r="1.729"/>
<circle fill="#D6102A" cx="102.803" cy="106.782" r="1.729"/>
<circle fill="#D6102A" cx="102.803" cy="99.886" r="1.729"/>
<circle fill="#D6102A" cx="102.803" cy="92.991" r="1.729"/>
<ellipse fill="#D6102A" cx="102.803" cy="86.097" rx="1.729" ry="1.723"/>
<ellipse fill="#D6102A" cx="102.803" cy="79.2" rx="1.729" ry="1.723"/>
<ellipse fill="#D6102A" cx="102.803" cy="65.409" rx="1.729" ry="1.723"/>
<ellipse fill="#D6102A" cx="102.803" cy="58.513" rx="1.729" ry="1.723"/>
<circle fill="#D6102A" cx="102.803" cy="51.618" r="1.729"/>
<circle fill="#D6102A" cx="102.803" cy="44.724" r="1.729"/>
<ellipse fill="#D6102A" cx="109.717" cy="161.948" rx="1.729" ry="1.723"/>
<circle fill="#D6102A" cx="109.717" cy="155.052" r="1.729"/>
<circle fill="#D6102A" cx="109.717" cy="120.573" r="1.729"/>
<circle fill="#D6102A" cx="109.717" cy="113.679" r="1.729"/>
<circle fill="#D6102A" cx="109.717" cy="106.782" r="1.729"/>
<ellipse fill="#D6102A" cx="109.717" cy="86.097" rx="1.729" ry="1.723"/>
<ellipse fill="#D6102A" cx="109.717" cy="79.2" rx="1.729" ry="1.723"/>
<path fill="#D6102A" d="M111.446,72.304c0,0.953-0.773,1.727-1.728,1.727s-1.729-0.773-1.729-1.727c0-0.949,0.775-1.723,1.729-1.723
	S111.446,71.354,111.446,72.304z"/>
<ellipse fill="#D6102A" cx="109.717" cy="65.409" rx="1.729" ry="1.723"/>
<ellipse fill="#D6102A" cx="109.717" cy="58.513" rx="1.729" ry="1.723"/>
<circle fill="#D6102A" cx="109.717" cy="51.618" r="1.729"/>
<circle fill="#D6102A" cx="116.634" cy="155.052" r="1.729"/>
<circle fill="#D6102A" cx="116.634" cy="120.573" r="1.729"/>
<circle fill="#D6102A" cx="116.634" cy="113.679" r="1.729"/>
<circle fill="#D6102A" cx="116.634" cy="106.782" r="1.729"/>
<ellipse fill="#D6102A" cx="116.634" cy="86.097" rx="1.729" ry="1.723"/>
<ellipse fill="#D6102A" cx="116.634" cy="79.2" rx="1.729" ry="1.723"/>
<ellipse fill="#D6102A" cx="116.634" cy="65.409" rx="1.729" ry="1.723"/>
<ellipse fill="#D6102A" cx="116.634" cy="58.513" rx="1.729" ry="1.723"/>
<circle fill="#D6102A" cx="116.634" cy="51.618" r="1.729"/>
<circle fill="#D6102A" cx="123.549" cy="106.782" r="1.728"/>
<ellipse fill="#D6102A" cx="123.549" cy="79.2" rx="1.728" ry="1.723"/>
<path fill="#D6102A" d="M125.277,72.304c0,0.953-0.774,1.727-1.729,1.727c-0.954,0-1.727-0.773-1.727-1.727
	c0-0.949,0.772-1.723,1.727-1.723C124.502,70.581,125.277,71.354,125.277,72.304z"/>
<ellipse fill="#D6102A" cx="123.549" cy="65.409" rx="1.728" ry="1.723"/>
<circle fill="#D6102A" cx="123.549" cy="51.618" r="1.728"/>
<circle fill="#D6102A" cx="123.549" cy="44.724" r="1.728"/>
<circle fill="#D6102A" cx="130.463" cy="141.261" r="1.729"/>
<circle fill="#D6102A" cx="130.463" cy="134.366" r="1.729"/>
<ellipse fill="#D6102A" cx="130.463" cy="127.47" rx="1.729" ry="1.723"/>
<circle fill="#D6102A" cx="130.463" cy="120.573" r="1.729"/>
<circle fill="#D6102A" cx="130.463" cy="113.679" r="1.729"/>
<circle fill="#D6102A" cx="130.463" cy="92.991" r="1.729"/>
<ellipse fill="#D6102A" cx="130.463" cy="86.097" rx="1.729" ry="1.723"/>
<ellipse fill="#D6102A" cx="130.463" cy="79.2" rx="1.729" ry="1.723"/>
<ellipse fill="#D6102A" cx="130.463" cy="65.409" rx="1.729" ry="1.723"/>
<ellipse fill="#D6102A" cx="130.463" cy="58.513" rx="1.729" ry="1.723"/>
<circle fill="#D6102A" cx="130.463" cy="51.618" r="1.729"/>
<circle fill="#D6102A" cx="130.463" cy="44.724" r="1.729"/>
<circle fill="#D6102A" cx="137.379" cy="120.573" r="1.729"/>
<circle fill="#D6102A" cx="137.379" cy="113.679" r="1.729"/>
<circle fill="#D6102A" cx="137.379" cy="106.782" r="1.729"/>
<circle fill="#D6102A" cx="137.379" cy="99.886" r="1.729"/>
<circle fill="#D6102A" cx="137.379" cy="92.991" r="1.729"/>
<ellipse fill="#D6102A" cx="137.379" cy="86.097" rx="1.729" ry="1.723"/>
<ellipse fill="#D6102A" cx="137.379" cy="79.2" rx="1.729" ry="1.723"/>
<path fill="#D6102A" d="M139.108,72.304c0,0.953-0.775,1.727-1.729,1.727c-0.955,0-1.729-0.773-1.729-1.727
	c0-0.949,0.773-1.723,1.729-1.723C138.333,70.581,139.108,71.354,139.108,72.304z"/>
<ellipse fill="#D6102A" cx="137.379" cy="65.409" rx="1.729" ry="1.723"/>
<ellipse fill="#D6102A" cx="137.379" cy="58.513" rx="1.729" ry="1.723"/>
<circle fill="#D6102A" cx="137.379" cy="51.618" r="1.729"/>
<circle fill="#D6102A" cx="137.379" cy="44.724" r="1.729"/>
<circle fill="#D6102A" cx="137.379" cy="37.827" r="1.729"/>
<ellipse fill="#D6102A" cx="144.293" cy="127.47" rx="1.729" ry="1.723"/>
<circle fill="#D6102A" cx="144.293" cy="120.573" r="1.729"/>
<circle fill="#D6102A" cx="144.293" cy="113.679" r="1.729"/>
<circle fill="#D6102A" cx="144.293" cy="106.782" r="1.729"/>
<circle fill="#D6102A" cx="144.293" cy="99.886" r="1.729"/>
<circle fill="#D6102A" cx="144.293" cy="92.991" r="1.729"/>
<ellipse fill="#D6102A" cx="144.293" cy="86.097" rx="1.729" ry="1.723"/>
<ellipse fill="#D6102A" cx="144.293" cy="79.2" rx="1.729" ry="1.723"/>
<path fill="#D6102A" d="M146.022,72.304c0,0.953-0.773,1.727-1.729,1.727s-1.729-0.773-1.729-1.727c0-0.949,0.773-1.723,1.729-1.723
	S146.022,71.354,146.022,72.304z"/>
<ellipse fill="#D6102A" cx="144.293" cy="65.409" rx="1.729" ry="1.723"/>
<circle fill="#D6102A" cx="144.293" cy="51.618" r="1.729"/>
<circle fill="#D6102A" cx="144.293" cy="44.724" r="1.729"/>
<circle fill="#D6102A" cx="144.293" cy="37.827" r="1.729"/>
<circle fill="#D6102A" cx="144.293" cy="30.933" r="1.729"/>
<ellipse fill="#D6102A" cx="151.209" cy="127.47" rx="1.729" ry="1.723"/>
<circle fill="#D6102A" cx="151.209" cy="120.573" r="1.729"/>
<circle fill="#D6102A" cx="151.209" cy="113.679" r="1.729"/>
<circle fill="#D6102A" cx="151.209" cy="106.782" r="1.729"/>
<path fill="#D6102A" d="M152.938,99.886c0,0.953-0.773,1.727-1.73,1.727c-0.955,0-1.727-0.773-1.727-1.727
	c0-0.951,0.771-1.723,1.727-1.723C152.165,98.163,152.938,98.935,152.938,99.886z"/>
<circle fill="#D6102A" cx="151.209" cy="92.991" r="1.729"/>
<ellipse fill="#D6102A" cx="151.209" cy="86.097" rx="1.729" ry="1.723"/>
<ellipse fill="#D6102A" cx="151.209" cy="79.2" rx="1.729" ry="1.723"/>
<path fill="#D6102A" d="M152.938,72.304c0,0.953-0.773,1.727-1.73,1.727c-0.955,0-1.727-0.773-1.727-1.727
	c0-0.949,0.771-1.723,1.727-1.723C152.165,70.581,152.938,71.354,152.938,72.304z"/>
<ellipse fill="#D6102A" cx="151.209" cy="65.409" rx="1.729" ry="1.723"/>
<ellipse fill="#D6102A" cx="151.209" cy="58.513" rx="1.729" ry="1.723"/>
<circle fill="#D6102A" cx="151.209" cy="51.618" r="1.729"/>
<circle fill="#D6102A" cx="158.124" cy="155.052" r="1.728"/>
<ellipse fill="#D6102A" cx="158.124" cy="148.157" rx="1.728" ry="1.723"/>
<circle fill="#D6102A" cx="158.124" cy="141.261" r="1.728"/>
<circle fill="#D6102A" cx="158.124" cy="134.366" r="1.728"/>
<ellipse fill="#D6102A" cx="158.124" cy="127.47" rx="1.728" ry="1.723"/>
<circle fill="#D6102A" cx="158.124" cy="120.573" r="1.728"/>
<circle fill="#D6102A" cx="158.124" cy="113.679" r="1.728"/>
<circle fill="#D6102A" cx="158.124" cy="106.782" r="1.728"/>
<circle fill="#D6102A" cx="158.124" cy="99.886" r="1.728"/>
<circle fill="#D6102A" cx="158.124" cy="92.991" r="1.728"/>
<ellipse fill="#D6102A" cx="158.124" cy="86.097" rx="1.728" ry="1.723"/>
<ellipse fill="#D6102A" cx="158.124" cy="79.2" rx="1.728" ry="1.723"/>
<path fill="#D6102A" d="M159.852,72.304c0,0.953-0.773,1.727-1.729,1.727c-0.954,0-1.728-0.773-1.728-1.727
	c0-0.949,0.773-1.723,1.728-1.723C159.079,70.581,159.852,71.354,159.852,72.304z"/>
<ellipse fill="#D6102A" cx="158.124" cy="65.409" rx="1.728" ry="1.723"/>
<ellipse fill="#D6102A" cx="158.124" cy="58.513" rx="1.728" ry="1.723"/>
<circle fill="#D6102A" cx="158.124" cy="51.618" r="1.728"/>
<ellipse fill="#D6102A" cx="165.041" cy="168.845" rx="1.729" ry="1.723"/>
<ellipse fill="#D6102A" cx="165.041" cy="161.948" rx="1.729" ry="1.723"/>
<circle fill="#D6102A" cx="165.041" cy="155.052" r="1.729"/>
<ellipse fill="#D6102A" cx="165.041" cy="148.157" rx="1.729" ry="1.723"/>
<circle fill="#D6102A" cx="165.041" cy="141.261" r="1.729"/>
<circle fill="#D6102A" cx="165.041" cy="134.366" r="1.729"/>
<ellipse fill="#D6102A" cx="165.041" cy="127.47" rx="1.729" ry="1.723"/>
<circle fill="#D6102A" cx="165.041" cy="120.573" r="1.729"/>
<circle fill="#D6102A" cx="165.041" cy="113.679" r="1.729"/>
<circle fill="#D6102A" cx="165.041" cy="106.782" r="1.729"/>
<circle fill="#D6102A" cx="165.041" cy="99.886" r="1.729"/>
<circle fill="#D6102A" cx="165.041" cy="92.991" r="1.729"/>
<ellipse fill="#D6102A" cx="165.041" cy="86.097" rx="1.729" ry="1.723"/>
<ellipse fill="#D6102A" cx="165.041" cy="79.2" rx="1.729" ry="1.723"/>
<path fill="#D6102A" d="M166.77,72.304c0,0.953-0.775,1.727-1.73,1.727s-1.729-0.773-1.729-1.727c0-0.949,0.773-1.723,1.729-1.723
	S166.77,71.354,166.77,72.304z"/>
<ellipse fill="#D6102A" cx="165.041" cy="65.409" rx="1.729" ry="1.723"/>
<ellipse fill="#D6102A" cx="165.041" cy="58.513" rx="1.729" ry="1.723"/>
<circle fill="#D6102A" cx="165.041" cy="51.618" r="1.729"/>
<circle fill="#D6102A" cx="165.041" cy="44.724" r="1.729"/>
<ellipse fill="#D6102A" cx="171.956" cy="148.157" rx="1.729" ry="1.723"/>
<circle fill="#D6102A" cx="171.956" cy="141.261" r="1.729"/>
<circle fill="#D6102A" cx="171.956" cy="92.991" r="1.729"/>
<ellipse fill="#D6102A" cx="171.956" cy="79.2" rx="1.729" ry="1.723"/>
<path fill="#D6102A" d="M173.684,72.304c0,0.953-0.774,1.727-1.729,1.727c-0.955,0-1.729-0.773-1.729-1.727
	c0-0.949,0.773-1.723,1.729-1.723C172.91,70.581,173.684,71.354,173.684,72.304z"/>
<ellipse fill="#D6102A" cx="171.956" cy="65.409" rx="1.729" ry="1.723"/>
<ellipse fill="#D6102A" cx="171.956" cy="58.513" rx="1.729" ry="1.723"/>
<circle fill="#D6102A" cx="171.956" cy="44.724" r="1.729"/>
<circle fill="#D6102A" cx="178.87" cy="141.261" r="1.729"/>
<circle fill="#D6102A" cx="178.87" cy="92.991" r="1.729"/>
<ellipse fill="#D6102A" cx="178.87" cy="79.2" rx="1.729" ry="1.723"/>
<path fill="#D6102A" d="M180.599,72.304c0,0.953-0.774,1.727-1.729,1.727s-1.729-0.773-1.729-1.727c0-0.949,0.773-1.723,1.729-1.723
	S180.599,71.354,180.599,72.304z"/>
<ellipse fill="#D6102A" cx="178.87" cy="65.409" rx="1.729" ry="1.723"/>
<ellipse fill="#D6102A" cx="178.87" cy="58.513" rx="1.729" ry="1.723"/>
<circle fill="#D6102A" cx="178.87" cy="44.724" r="1.729"/>
<circle fill="#D6102A" cx="185.785" cy="92.991" r="1.729"/>
<ellipse fill="#D6102A" cx="185.785" cy="86.097" rx="1.729" ry="1.723"/>
<ellipse fill="#D6102A" cx="185.785" cy="79.2" rx="1.729" ry="1.723"/>
<path fill="#D6102A" d="M187.514,72.304c0,0.953-0.775,1.727-1.729,1.727c-0.956,0-1.729-0.773-1.729-1.727
	c0-0.949,0.772-1.723,1.729-1.723C186.739,70.581,187.514,71.354,187.514,72.304z"/>
<ellipse fill="#D6102A" cx="185.785" cy="65.409" rx="1.729" ry="1.723"/>
<ellipse fill="#D6102A" cx="185.785" cy="58.513" rx="1.729" ry="1.723"/>
<circle fill="#D6102A" cx="192.699" cy="134.366" r="1.728"/>
<ellipse fill="#D6102A" cx="192.699" cy="127.47" rx="1.728" ry="1.723"/>
<circle fill="#D6102A" cx="192.699" cy="120.573" r="1.728"/>
<circle fill="#D6102A" cx="192.699" cy="113.679" r="1.728"/>
<circle fill="#D6102A" cx="192.699" cy="106.782" r="1.728"/>
<circle fill="#D6102A" cx="192.699" cy="99.886" r="1.728"/>
<circle fill="#D6102A" cx="192.699" cy="92.991" r="1.728"/>
<ellipse fill="#D6102A" cx="192.699" cy="86.097" rx="1.728" ry="1.723"/>
<ellipse fill="#D6102A" cx="192.699" cy="79.2" rx="1.728" ry="1.723"/>
<ellipse fill="#D6102A" cx="192.699" cy="65.409" rx="1.728" ry="1.723"/>
<ellipse fill="#D6102A" cx="192.699" cy="58.513" rx="1.728" ry="1.723"/>
<circle fill="#D6102A" cx="199.615" cy="134.366" r="1.729"/>
<ellipse fill="#D6102A" cx="199.615" cy="127.47" rx="1.729" ry="1.723"/>
<circle fill="#D6102A" cx="199.615" cy="120.573" r="1.729"/>
<circle fill="#D6102A" cx="199.615" cy="113.679" r="1.729"/>
<circle fill="#D6102A" cx="199.615" cy="106.782" r="1.729"/>
<circle fill="#D6102A" cx="199.615" cy="99.886" r="1.729"/>
<circle fill="#D6102A" cx="199.615" cy="92.991" r="1.729"/>
<ellipse fill="#D6102A" cx="199.615" cy="86.097" rx="1.729" ry="1.723"/>
<ellipse fill="#D6102A" cx="206.53" cy="127.47" rx="1.729" ry="1.723"/>
<circle fill="#D6102A" cx="206.53" cy="120.573" r="1.729"/>
<circle fill="#D6102A" cx="206.53" cy="113.679" r="1.729"/>
<circle fill="#D6102A" cx="206.53" cy="106.782" r="1.729"/>
<circle fill="#D6102A" cx="213.446" cy="141.261" r="1.729"/>
<circle fill="#D6102A" cx="213.446" cy="134.366" r="1.729"/>
<ellipse fill="#D6102A" cx="213.446" cy="127.47" rx="1.729" ry="1.723"/>
<circle fill="#D6102A" cx="213.446" cy="120.573" r="1.729"/>
<circle fill="#D6102A" cx="213.446" cy="113.679" r="1.729"/>
<circle fill="#D6102A" cx="213.446" cy="106.782" r="1.729"/>
<circle fill="#D6102A" cx="220.361" cy="141.261" r="1.729"/>
<circle fill="#D6102A" cx="220.361" cy="134.366" r="1.729"/>
<ellipse fill="#D6102A" cx="220.361" cy="127.47" rx="1.729" ry="1.723"/>
<circle fill="#D6102A" cx="220.361" cy="106.782" r="1.729"/>
<circle fill="#D6102A" cx="220.361" cy="113.679" r="1.729"/>
<circle fill="#D6102A" cx="220.361" cy="99.886" r="1.729"/>
<circle fill="#D6102A" cx="220.361" cy="92.991" r="1.729"/>
<path fill="#D6102A" d="M229.004,113.679c0,0.953-0.771,1.725-1.729,1.725c-0.955,0-1.727-0.771-1.727-1.725
	c0-0.951,0.771-1.723,1.727-1.723C228.233,111.956,229.004,112.728,229.004,113.679z"/>
<path fill="#D6102A" d="M229.004,106.782c0,0.953-0.771,1.725-1.729,1.725c-0.955,0-1.727-0.771-1.727-1.725
	c0-0.951,0.771-1.723,1.727-1.723C228.233,105.06,229.004,105.831,229.004,106.782z"/>
<path fill="#D6102A" d="M229.004,99.886c0,0.953-0.771,1.727-1.729,1.727c-0.955,0-1.727-0.773-1.727-1.727
	c0-0.951,0.771-1.723,1.727-1.723C228.233,98.163,229.004,98.935,229.004,99.886z"/>
<path fill="#D6102A" d="M229.004,92.991c0,0.953-0.771,1.725-1.729,1.725c-0.955,0-1.727-0.771-1.727-1.725
	c0-0.951,0.771-1.723,1.727-1.723C228.233,91.269,229.004,92.04,229.004,92.991z"/>
<path fill="#D6102A" d="M229.004,86.097c0,0.951-0.771,1.723-1.729,1.723c-0.955,0-1.727-0.771-1.727-1.723s0.771-1.725,1.727-1.725
	C228.233,84.372,229.004,85.146,229.004,86.097z"/>
<circle fill="#D6102A" cx="234.191" cy="113.679" r="1.728"/>
<circle fill="#D6102A" cx="234.191" cy="99.886" r="1.728"/>
<ellipse fill="#D6102A" cx="26.735" cy="148.157" rx="2.594" ry="2.586"/>
<ellipse fill="#D6102A" cx="33.652" cy="148.157" rx="2.595" ry="2.586"/>
<ellipse fill="#D6102A" cx="54.396" cy="120.573" rx="2.593" ry="2.586"/>
<ellipse fill="#D6102A" cx="54.396" cy="113.679" rx="2.593" ry="2.586"/>
<ellipse fill="#D6102A" cx="54.396" cy="86.097" rx="2.593" ry="2.586"/>
<ellipse fill="#D6102A" cx="61.312" cy="113.679" rx="2.593" ry="2.586"/>
<path fill="#D6102A" d="M63.905,99.886c0,1.43-1.162,2.588-2.595,2.588c-1.431,0-2.592-1.158-2.592-2.588
	c0-1.426,1.161-2.584,2.592-2.584C62.743,97.302,63.905,98.46,63.905,99.886z"/>
<ellipse fill="#D6102A" cx="61.312" cy="92.991" rx="2.593" ry="2.586"/>
<ellipse fill="#D6102A" cx="61.312" cy="86.097" rx="2.593" ry="2.586"/>
<ellipse fill="#D6102A" cx="61.312" cy="79.2" rx="2.593" ry="2.586"/>
<path fill="#D6102A" d="M70.821,155.052c0,1.432-1.162,2.588-2.595,2.588c-1.431,0-2.593-1.156-2.593-2.588
	c0-1.424,1.162-2.584,2.593-2.584C69.659,152.468,70.821,153.628,70.821,155.052z"/>
<ellipse fill="#D6102A" cx="68.227" cy="141.261" rx="2.594" ry="2.588"/>
<ellipse fill="#D6102A" cx="68.227" cy="134.366" rx="2.594" ry="2.586"/>
<ellipse fill="#D6102A" cx="68.227" cy="127.47" rx="2.594" ry="2.586"/>
<ellipse fill="#D6102A" cx="68.227" cy="120.573" rx="2.594" ry="2.586"/>
<ellipse fill="#D6102A" cx="68.227" cy="106.782" rx="2.594" ry="2.586"/>
<ellipse fill="#D6102A" cx="68.227" cy="92.991" rx="2.594" ry="2.586"/>
<ellipse fill="#D6102A" cx="68.227" cy="79.2" rx="2.594" ry="2.586"/>
<path fill="#D6102A" d="M70.821,72.304c0,1.43-1.162,2.588-2.595,2.588c-1.431,0-2.593-1.158-2.593-2.588
	c0-1.426,1.162-2.586,2.593-2.586C69.659,69.718,70.821,70.878,70.821,72.304z"/>
<ellipse fill="#D6102A" cx="75.141" cy="161.948" rx="2.594" ry="2.586"/>
<path fill="#D6102A" d="M77.735,155.052c0,1.432-1.161,2.588-2.594,2.588c-1.434,0-2.594-1.156-2.594-2.588
	c0-1.424,1.16-2.584,2.594-2.584C76.574,152.468,77.735,153.628,77.735,155.052z"/>
<ellipse fill="#D6102A" cx="75.141" cy="148.157" rx="2.594" ry="2.586"/>
<ellipse fill="#D6102A" cx="75.141" cy="127.47" rx="2.594" ry="2.586"/>
<ellipse fill="#D6102A" cx="75.141" cy="120.573" rx="2.594" ry="2.586"/>
<ellipse fill="#D6102A" cx="75.141" cy="106.782" rx="2.594" ry="2.586"/>
<ellipse fill="#D6102A" cx="75.141" cy="92.991" rx="2.594" ry="2.586"/>
<ellipse fill="#D6102A" cx="75.141" cy="86.097" rx="2.594" ry="2.586"/>
<path fill="#D6102A" d="M77.735,72.304c0,1.43-1.161,2.588-2.594,2.588c-1.434,0-2.594-1.158-2.594-2.588
	c0-1.426,1.16-2.586,2.594-2.586C76.574,69.718,77.735,70.878,77.735,72.304z"/>
<ellipse fill="#D6102A" cx="82.057" cy="168.845" rx="2.594" ry="2.586"/>
<path fill="#D6102A" d="M84.651,155.052c0,1.432-1.162,2.588-2.594,2.588c-1.434,0-2.594-1.156-2.594-2.588
	c0-1.424,1.16-2.584,2.594-2.584C83.489,152.468,84.651,153.628,84.651,155.052z"/>
<ellipse fill="#D6102A" cx="82.057" cy="148.157" rx="2.594" ry="2.586"/>
<ellipse fill="#D6102A" cx="82.057" cy="134.366" rx="2.594" ry="2.586"/>
<ellipse fill="#D6102A" cx="82.057" cy="127.47" rx="2.594" ry="2.586"/>
<ellipse fill="#D6102A" cx="82.057" cy="113.679" rx="2.594" ry="2.586"/>
<path fill="#D6102A" d="M84.651,99.886c0,1.43-1.162,2.588-2.594,2.588c-1.434,0-2.594-1.158-2.594-2.588
	c0-1.426,1.16-2.584,2.594-2.584C83.489,97.302,84.651,98.46,84.651,99.886z"/>
<ellipse fill="#D6102A" cx="82.057" cy="92.991" rx="2.594" ry="2.586"/>
<ellipse fill="#D6102A" cx="82.057" cy="79.2" rx="2.594" ry="2.586"/>
<path fill="#D6102A" d="M84.651,72.304c0,1.43-1.162,2.588-2.594,2.588c-1.434,0-2.594-1.158-2.594-2.588
	c0-1.426,1.16-2.586,2.594-2.586C83.489,69.718,84.651,70.878,84.651,72.304z"/>
<ellipse fill="#D6102A" cx="88.972" cy="161.948" rx="2.593" ry="2.586"/>
<path fill="#D6102A" d="M91.565,155.052c0,1.432-1.16,2.588-2.593,2.588s-2.593-1.156-2.593-2.588c0-1.424,1.16-2.584,2.593-2.584
	S91.565,153.628,91.565,155.052z"/>
<ellipse fill="#D6102A" cx="88.972" cy="148.157" rx="2.593" ry="2.586"/>
<circle fill="#D6102A" cx="88.972" cy="141.261" r="2.593"/>
<ellipse fill="#D6102A" cx="88.972" cy="134.366" rx="2.593" ry="2.586"/>
<ellipse fill="#D6102A" cx="88.972" cy="127.47" rx="2.593" ry="2.586"/>
<ellipse fill="#D6102A" cx="88.972" cy="113.679" rx="2.593" ry="2.586"/>
<path fill="#D6102A" d="M91.565,99.886c0,1.43-1.16,2.588-2.593,2.588s-2.593-1.158-2.593-2.588c0-1.426,1.16-2.584,2.593-2.584
	S91.565,98.46,91.565,99.886z"/>
<ellipse fill="#D6102A" cx="88.972" cy="92.991" rx="2.593" ry="2.586"/>
<ellipse fill="#D6102A" cx="88.972" cy="86.097" rx="2.593" ry="2.586"/>
<ellipse fill="#D6102A" cx="88.972" cy="79.2" rx="2.593" ry="2.586"/>
<path fill="#D6102A" d="M91.565,72.304c0,1.43-1.16,2.588-2.593,2.588s-2.593-1.158-2.593-2.588c0-1.426,1.16-2.586,2.593-2.586
	S91.565,70.878,91.565,72.304z"/>
<ellipse fill="#D6102A" cx="95.887" cy="134.366" rx="2.594" ry="2.586"/>
<ellipse fill="#D6102A" cx="95.887" cy="120.573" rx="2.594" ry="2.586"/>
<ellipse fill="#D6102A" cx="95.887" cy="113.679" rx="2.594" ry="2.586"/>
<ellipse fill="#D6102A" cx="95.887" cy="106.782" rx="2.594" ry="2.586"/>
<ellipse fill="#D6102A" cx="95.887" cy="86.097" rx="2.594" ry="2.586"/>
<ellipse fill="#D6102A" cx="95.887" cy="79.2" rx="2.594" ry="2.586"/>
<ellipse fill="#D6102A" cx="95.887" cy="65.409" rx="2.594" ry="2.584"/>
<ellipse fill="#D6102A" cx="95.887" cy="58.513" rx="2.594" ry="2.586"/>
<ellipse fill="#D6102A" cx="95.887" cy="51.618" rx="2.594" ry="2.586"/>
<ellipse fill="#D6102A" cx="102.803" cy="134.366" rx="2.594" ry="2.586"/>
<ellipse fill="#D6102A" cx="102.803" cy="127.47" rx="2.594" ry="2.586"/>
<ellipse fill="#D6102A" cx="102.803" cy="120.573" rx="2.594" ry="2.586"/>
<ellipse fill="#D6102A" cx="102.803" cy="106.782" rx="2.594" ry="2.586"/>
<path fill="#D6102A" d="M105.397,99.886c0,1.43-1.162,2.588-2.595,2.588s-2.593-1.158-2.593-2.588c0-1.426,1.16-2.584,2.593-2.584
	S105.397,98.46,105.397,99.886z"/>
<ellipse fill="#D6102A" cx="102.803" cy="92.991" rx="2.594" ry="2.586"/>
<ellipse fill="#D6102A" cx="102.803" cy="86.097" rx="2.594" ry="2.586"/>
<path fill="#D6102A" d="M105.397,72.304c0,1.43-1.162,2.588-2.595,2.588s-2.593-1.158-2.593-2.588c0-1.426,1.16-2.586,2.593-2.586
	S105.397,70.878,105.397,72.304z"/>
<ellipse fill="#D6102A" cx="102.803" cy="65.409" rx="2.594" ry="2.584"/>
<ellipse fill="#D6102A" cx="102.803" cy="58.513" rx="2.594" ry="2.586"/>
<ellipse fill="#D6102A" cx="102.803" cy="51.618" rx="2.594" ry="2.586"/>
<ellipse fill="#D6102A" cx="102.803" cy="44.724" rx="2.594" ry="2.586"/>
<ellipse fill="#D6102A" cx="109.718" cy="161.948" rx="2.593" ry="2.586"/>
<ellipse fill="#D6102A" cx="109.718" cy="134.366" rx="2.593" ry="2.586"/>
<ellipse fill="#D6102A" cx="109.718" cy="127.47" rx="2.593" ry="2.586"/>
<ellipse fill="#D6102A" cx="109.718" cy="120.573" rx="2.593" ry="2.586"/>
<ellipse fill="#D6102A" cx="109.718" cy="113.679" rx="2.593" ry="2.586"/>
<ellipse fill="#D6102A" cx="109.718" cy="106.782" rx="2.593" ry="2.586"/>
<ellipse fill="#D6102A" cx="109.718" cy="65.409" rx="2.593" ry="2.584"/>
<ellipse fill="#D6102A" cx="109.718" cy="58.513" rx="2.593" ry="2.586"/>
<ellipse fill="#D6102A" cx="109.718" cy="51.618" rx="2.593" ry="2.586"/>
<ellipse fill="#D6102A" cx="116.633" cy="106.782" rx="2.594" ry="2.586"/>
<path fill="#D6102A" d="M119.227,99.886c0,1.43-1.161,2.588-2.594,2.588c-1.432,0-2.594-1.158-2.594-2.588
	c0-1.426,1.162-2.584,2.594-2.584C118.066,97.302,119.227,98.46,119.227,99.886z"/>
<ellipse fill="#D6102A" cx="116.633" cy="92.991" rx="2.594" ry="2.586"/>
<ellipse fill="#D6102A" cx="116.633" cy="86.097" rx="2.594" ry="2.586"/>
<ellipse fill="#D6102A" cx="116.633" cy="79.2" rx="2.594" ry="2.586"/>
<path fill="#D6102A" d="M119.227,72.304c0,1.43-1.161,2.588-2.594,2.588c-1.432,0-2.594-1.158-2.594-2.588
	c0-1.426,1.162-2.586,2.594-2.586C118.066,69.718,119.227,70.878,119.227,72.304z"/>
<path fill="#D6102A" d="M126.141,99.886c0,1.43-1.161,2.588-2.594,2.588c-1.432,0-2.594-1.158-2.594-2.588
	c0-1.426,1.162-2.584,2.594-2.584C124.98,97.302,126.141,98.46,126.141,99.886z"/>
<ellipse fill="#D6102A" cx="123.547" cy="92.991" rx="2.594" ry="2.586"/>
<path fill="#D6102A" d="M126.141,72.304c0,1.43-1.161,2.588-2.594,2.588c-1.432,0-2.594-1.158-2.594-2.588
	c0-1.426,1.162-2.586,2.594-2.586C124.98,69.718,126.141,70.878,126.141,72.304z"/>
<path fill="#D6102A" d="M133.057,99.886c0,1.43-1.162,2.588-2.594,2.588c-1.433,0-2.594-1.158-2.594-2.588
	c0-1.426,1.161-2.584,2.594-2.584C131.895,97.302,133.057,98.46,133.057,99.886z"/>
<ellipse fill="#D6102A" cx="130.463" cy="92.991" rx="2.594" ry="2.586"/>
<ellipse fill="#D6102A" cx="130.463" cy="86.097" rx="2.594" ry="2.586"/>
<ellipse fill="#D6102A" cx="130.463" cy="79.2" rx="2.594" ry="2.586"/>
<path fill="#D6102A" d="M133.057,72.304c0,1.43-1.162,2.588-2.594,2.588c-1.433,0-2.594-1.158-2.594-2.588
	c0-1.426,1.161-2.586,2.594-2.586C131.895,69.718,133.057,70.878,133.057,72.304z"/>
<ellipse fill="#D6102A" cx="137.379" cy="79.2" rx="2.594" ry="2.586"/>
<ellipse fill="#D6102A" cx="137.379" cy="37.827" rx="2.594" ry="2.584"/>
<ellipse fill="#D6102A" cx="144.293" cy="134.366" rx="2.594" ry="2.586"/>
<ellipse fill="#D6102A" cx="144.293" cy="127.47" rx="2.594" ry="2.586"/>
<ellipse fill="#D6102A" cx="144.293" cy="120.573" rx="2.594" ry="2.586"/>
<ellipse fill="#D6102A" cx="144.293" cy="113.679" rx="2.594" ry="2.586"/>
<ellipse fill="#D6102A" cx="144.293" cy="106.782" rx="2.594" ry="2.586"/>
<path fill="#D6102A" d="M146.887,99.886c0,1.43-1.16,2.588-2.594,2.588c-1.432,0-2.594-1.158-2.594-2.588
	c0-1.426,1.162-2.584,2.594-2.584C145.727,97.302,146.887,98.46,146.887,99.886z"/>
<ellipse fill="#D6102A" cx="144.293" cy="92.991" rx="2.594" ry="2.586"/>
<ellipse fill="#D6102A" cx="144.293" cy="86.097" rx="2.594" ry="2.586"/>
<ellipse fill="#D6102A" cx="144.293" cy="79.2" rx="2.594" ry="2.586"/>
<path fill="#D6102A" d="M146.887,72.304c0,1.43-1.16,2.588-2.594,2.588c-1.432,0-2.594-1.158-2.594-2.588
	c0-1.426,1.162-2.586,2.594-2.586C145.727,69.718,146.887,70.878,146.887,72.304z"/>
<ellipse fill="#D6102A" cx="144.293" cy="65.409" rx="2.594" ry="2.584"/>
<ellipse fill="#D6102A" cx="144.293" cy="58.513" rx="2.594" ry="2.586"/>
<ellipse fill="#D6102A" cx="144.293" cy="51.618" rx="2.594" ry="2.586"/>
<ellipse fill="#D6102A" cx="144.293" cy="44.724" rx="2.594" ry="2.586"/>
<ellipse fill="#D6102A" cx="144.293" cy="37.827" rx="2.594" ry="2.584"/>
<ellipse fill="#D6102A" cx="144.293" cy="30.933" rx="2.594" ry="2.584"/>
<path fill="#D6102A" d="M153.803,148.157c0,1.428-1.16,2.586-2.596,2.586c-1.43,0-2.592-1.158-2.592-2.586s1.162-2.586,2.592-2.586
	C152.643,145.571,153.803,146.729,153.803,148.157z"/>
<path fill="#D6102A" d="M153.803,141.261c0,1.43-1.16,2.588-2.596,2.588c-1.43,0-2.592-1.158-2.592-2.588
	c0-1.428,1.162-2.586,2.592-2.586C152.643,138.675,153.803,139.833,153.803,141.261z"/>
<path fill="#D6102A" d="M153.803,134.366c0,1.43-1.16,2.586-2.596,2.586c-1.43,0-2.592-1.156-2.592-2.586
	c0-1.428,1.162-2.586,2.592-2.586C152.643,131.78,153.803,132.938,153.803,134.366z"/>
<path fill="#D6102A" d="M153.803,99.886c0,1.43-1.16,2.588-2.596,2.588c-1.43,0-2.592-1.158-2.592-2.588
	c0-1.426,1.162-2.584,2.592-2.584C152.643,97.302,153.803,98.46,153.803,99.886z"/>
<path fill="#D6102A" d="M153.803,92.991c0,1.43-1.16,2.586-2.596,2.586c-1.43,0-2.592-1.156-2.592-2.586
	c0-1.428,1.162-2.586,2.592-2.586C152.643,90.405,153.803,91.563,153.803,92.991z"/>
<path fill="#D6102A" d="M153.803,79.2c0,1.428-1.16,2.586-2.596,2.586c-1.43,0-2.592-1.158-2.592-2.586s1.162-2.588,2.592-2.588
	C152.643,76.612,153.803,77.772,153.803,79.2z"/>
<path fill="#D6102A" d="M153.803,72.304c0,1.43-1.16,2.588-2.596,2.588c-1.43,0-2.592-1.158-2.592-2.588
	c0-1.426,1.162-2.586,2.592-2.586C152.643,69.718,153.803,70.878,153.803,72.304z"/>
<path fill="#D6102A" d="M153.803,58.513c0,1.428-1.16,2.586-2.596,2.586c-1.43,0-2.592-1.158-2.592-2.586s1.162-2.586,2.592-2.586
	C152.643,55.927,153.803,57.085,153.803,58.513z"/>
<path fill="#D6102A" d="M160.717,155.052c0,1.432-1.16,2.588-2.594,2.588c-1.432,0-2.594-1.156-2.594-2.588
	c0-1.424,1.162-2.584,2.594-2.584C159.557,152.468,160.717,153.628,160.717,155.052z"/>
<ellipse fill="#D6102A" cx="158.124" cy="148.157" rx="2.594" ry="2.586"/>
<ellipse fill="#D6102A" cx="158.124" cy="134.366" rx="2.594" ry="2.586"/>
<ellipse fill="#D6102A" cx="158.124" cy="127.47" rx="2.594" ry="2.586"/>
<path fill="#D6102A" d="M160.717,99.886c0,1.43-1.16,2.588-2.594,2.588c-1.432,0-2.594-1.158-2.594-2.588
	c0-1.426,1.162-2.584,2.594-2.584C159.557,97.302,160.717,98.46,160.717,99.886z"/>
<ellipse fill="#D6102A" cx="158.124" cy="92.991" rx="2.594" ry="2.586"/>
<ellipse fill="#D6102A" cx="158.124" cy="86.097" rx="2.594" ry="2.586"/>
<ellipse fill="#D6102A" cx="158.124" cy="58.513" rx="2.594" ry="2.586"/>
<ellipse fill="#D6102A" cx="158.124" cy="51.618" rx="2.594" ry="2.586"/>
<ellipse fill="#D6102A" cx="165.04" cy="168.845" rx="2.594" ry="2.586"/>
<ellipse fill="#D6102A" cx="165.04" cy="161.948" rx="2.594" ry="2.586"/>
<path fill="#D6102A" d="M167.634,155.052c0,1.432-1.161,2.588-2.595,2.588c-1.432,0-2.594-1.156-2.594-2.588
	c0-1.424,1.162-2.584,2.594-2.584C166.473,152.468,167.634,153.628,167.634,155.052z"/>
<ellipse fill="#D6102A" cx="165.04" cy="148.157" rx="2.594" ry="2.586"/>
<ellipse fill="#D6102A" cx="165.04" cy="141.261" rx="2.594" ry="2.588"/>
<ellipse fill="#D6102A" cx="165.04" cy="134.366" rx="2.594" ry="2.586"/>
<ellipse fill="#D6102A" cx="165.04" cy="127.47" rx="2.594" ry="2.586"/>
<path fill="#D6102A" d="M167.634,99.886c0,1.43-1.161,2.588-2.595,2.588c-1.432,0-2.594-1.158-2.594-2.588
	c0-1.426,1.162-2.584,2.594-2.584C166.473,97.302,167.634,98.46,167.634,99.886z"/>
<ellipse fill="#D6102A" cx="165.04" cy="92.991" rx="2.594" ry="2.586"/>
<ellipse fill="#D6102A" cx="165.04" cy="79.2" rx="2.594" ry="2.586"/>
<path fill="#D6102A" d="M167.634,72.304c0,1.43-1.161,2.588-2.595,2.588c-1.432,0-2.594-1.158-2.594-2.588
	c0-1.426,1.162-2.586,2.594-2.586C166.473,69.718,167.634,70.878,167.634,72.304z"/>
<ellipse fill="#D6102A" cx="165.04" cy="58.513" rx="2.594" ry="2.586"/>
<ellipse fill="#D6102A" cx="165.04" cy="51.618" rx="2.594" ry="2.586"/>
<ellipse fill="#D6102A" cx="165.04" cy="44.724" rx="2.594" ry="2.586"/>
<ellipse fill="#D6102A" cx="171.956" cy="148.157" rx="2.594" ry="2.586"/>
<ellipse fill="#D6102A" cx="171.956" cy="141.261" rx="2.594" ry="2.588"/>
<ellipse fill="#D6102A" cx="171.956" cy="127.47" rx="2.594" ry="2.586"/>
<ellipse fill="#D6102A" cx="171.956" cy="113.679" rx="2.594" ry="2.586"/>
<ellipse fill="#D6102A" cx="171.956" cy="106.782" rx="2.594" ry="2.586"/>
<ellipse fill="#D6102A" cx="171.956" cy="92.991" rx="2.594" ry="2.586"/>
<ellipse fill="#D6102A" cx="171.956" cy="79.2" rx="2.594" ry="2.586"/>
<path fill="#D6102A" d="M174.549,72.304c0,1.43-1.162,2.588-2.594,2.588c-1.434,0-2.594-1.158-2.594-2.588
	c0-1.426,1.16-2.586,2.594-2.586C173.387,69.718,174.549,70.878,174.549,72.304z"/>
<ellipse fill="#D6102A" cx="171.956" cy="65.409" rx="2.594" ry="2.584"/>
<ellipse fill="#D6102A" cx="171.956" cy="51.618" rx="2.594" ry="2.586"/>
<ellipse fill="#D6102A" cx="171.956" cy="44.724" rx="2.594" ry="2.586"/>
<circle fill="#D6102A" cx="178.871" cy="141.261" r="2.593"/>
<ellipse fill="#D6102A" cx="178.871" cy="134.366" rx="2.593" ry="2.586"/>
<ellipse fill="#D6102A" cx="178.871" cy="127.47" rx="2.593" ry="2.586"/>
<ellipse fill="#D6102A" cx="178.871" cy="120.573" rx="2.593" ry="2.586"/>
<ellipse fill="#D6102A" cx="178.871" cy="113.679" rx="2.593" ry="2.586"/>
<ellipse fill="#D6102A" cx="178.871" cy="106.782" rx="2.593" ry="2.586"/>
<path fill="#D6102A" d="M181.463,99.886c0,1.43-1.161,2.588-2.594,2.588c-1.432,0-2.592-1.158-2.592-2.588
	c0-1.426,1.16-2.584,2.592-2.584C180.302,97.302,181.463,98.46,181.463,99.886z"/>
<ellipse fill="#D6102A" cx="178.871" cy="92.991" rx="2.593" ry="2.586"/>
<ellipse fill="#D6102A" cx="178.871" cy="86.097" rx="2.593" ry="2.586"/>
<ellipse fill="#D6102A" cx="178.871" cy="79.2" rx="2.593" ry="2.586"/>
<path fill="#D6102A" d="M181.463,72.304c0,1.43-1.161,2.588-2.594,2.588c-1.432,0-2.592-1.158-2.592-2.588
	c0-1.426,1.16-2.586,2.592-2.586C180.302,69.718,181.463,70.878,181.463,72.304z"/>
<ellipse fill="#D6102A" cx="178.871" cy="58.513" rx="2.593" ry="2.586"/>
<ellipse fill="#D6102A" cx="178.871" cy="51.618" rx="2.593" ry="2.586"/>
<ellipse fill="#D6102A" cx="178.871" cy="44.724" rx="2.593" ry="2.586"/>
<ellipse fill="#D6102A" cx="185.786" cy="120.573" rx="2.594" ry="2.586"/>
<ellipse fill="#D6102A" cx="185.786" cy="113.679" rx="2.594" ry="2.586"/>
<path fill="#D6102A" d="M188.379,99.886c0,1.43-1.16,2.588-2.595,2.588c-1.431,0-2.593-1.158-2.593-2.588
	c0-1.426,1.162-2.584,2.593-2.584C187.219,97.302,188.379,98.46,188.379,99.886z"/>
<ellipse fill="#D6102A" cx="185.786" cy="92.991" rx="2.594" ry="2.586"/>
<ellipse fill="#D6102A" cx="185.786" cy="86.097" rx="2.594" ry="2.586"/>
<ellipse fill="#D6102A" cx="185.786" cy="79.2" rx="2.594" ry="2.586"/>
<path fill="#D6102A" d="M188.379,72.304c0,1.43-1.16,2.588-2.595,2.588c-1.431,0-2.593-1.158-2.593-2.588
	c0-1.426,1.162-2.586,2.593-2.586C187.219,69.718,188.379,70.878,188.379,72.304z"/>
<ellipse fill="#D6102A" cx="185.786" cy="65.409" rx="2.594" ry="2.584"/>
<ellipse fill="#D6102A" cx="185.786" cy="58.513" rx="2.594" ry="2.586"/>
<ellipse fill="#D6102A" cx="185.786" cy="51.618" rx="2.594" ry="2.586"/>
<ellipse fill="#D6102A" cx="192.7" cy="134.366" rx="2.594" ry="2.586"/>
<ellipse fill="#D6102A" cx="192.7" cy="127.47" rx="2.594" ry="2.586"/>
<ellipse fill="#D6102A" cx="192.7" cy="120.573" rx="2.594" ry="2.586"/>
<ellipse fill="#D6102A" cx="192.7" cy="113.679" rx="2.594" ry="2.586"/>
<ellipse fill="#D6102A" cx="192.7" cy="106.782" rx="2.594" ry="2.586"/>
<path fill="#D6102A" d="M195.293,99.886c0,1.43-1.16,2.588-2.594,2.588c-1.433,0-2.594-1.158-2.594-2.588
	c0-1.426,1.161-2.584,2.594-2.584C194.133,97.302,195.293,98.46,195.293,99.886z"/>
<ellipse fill="#D6102A" cx="192.7" cy="86.097" rx="2.594" ry="2.586"/>
<ellipse fill="#D6102A" cx="192.7" cy="79.2" rx="2.594" ry="2.586"/>
<ellipse fill="#D6102A" cx="199.615" cy="134.366" rx="2.593" ry="2.586"/>
<ellipse fill="#D6102A" cx="199.615" cy="120.573" rx="2.593" ry="2.586"/>
<path fill="#D6102A" d="M202.208,99.886c0,1.43-1.161,2.588-2.593,2.588s-2.594-1.158-2.594-2.588c0-1.426,1.162-2.584,2.594-2.584
	S202.208,98.46,202.208,99.886z"/>
<ellipse fill="#D6102A" cx="199.615" cy="92.991" rx="2.593" ry="2.586"/>
<ellipse fill="#D6102A" cx="199.615" cy="86.097" rx="2.593" ry="2.586"/>
<ellipse fill="#D6102A" cx="206.53" cy="120.573" rx="2.594" ry="2.586"/>
<ellipse fill="#D6102A" cx="206.53" cy="113.679" rx="2.594" ry="2.586"/>
<ellipse fill="#D6102A" cx="206.53" cy="106.782" rx="2.594" ry="2.586"/>
<path fill="#D6102A" d="M209.124,99.886c0,1.43-1.16,2.588-2.592,2.588c-1.434,0-2.596-1.158-2.596-2.588
	c0-1.426,1.162-2.584,2.596-2.584C207.963,97.302,209.124,98.46,209.124,99.886z"/>
<ellipse fill="#D6102A" cx="206.53" cy="92.991" rx="2.594" ry="2.586"/>
<ellipse fill="#D6102A" cx="206.53" cy="86.097" rx="2.594" ry="2.586"/>
<ellipse fill="#D6102A" cx="213.446" cy="141.261" rx="2.594" ry="2.588"/>
<ellipse fill="#D6102A" cx="213.446" cy="134.366" rx="2.594" ry="2.586"/>
<ellipse fill="#D6102A" cx="213.446" cy="127.47" rx="2.594" ry="2.586"/>
<ellipse fill="#D6102A" cx="213.446" cy="120.573" rx="2.594" ry="2.586"/>
<ellipse fill="#D6102A" cx="213.446" cy="106.782" rx="2.594" ry="2.586"/>
<ellipse fill="#D6102A" cx="220.362" cy="141.261" rx="2.594" ry="2.588"/>
<ellipse fill="#D6102A" cx="220.362" cy="134.366" rx="2.594" ry="2.586"/>
<ellipse fill="#D6102A" cx="220.362" cy="127.47" rx="2.594" ry="2.586"/>
<ellipse fill="#D6102A" cx="220.362" cy="106.782" rx="2.594" ry="2.586"/>
<path fill="#D6102A" d="M222.956,99.886c0,1.43-1.162,2.588-2.595,2.588c-1.434,0-2.593-1.158-2.593-2.588
	c0-1.426,1.159-2.584,2.593-2.584C221.793,97.302,222.956,98.46,222.956,99.886z"/>
<ellipse fill="#D6102A" cx="220.362" cy="92.991" rx="2.594" ry="2.586"/>
<ellipse fill="#D6102A" cx="227.275" cy="113.679" rx="2.591" ry="2.586"/>
<ellipse fill="#D6102A" cx="227.275" cy="106.782" rx="2.591" ry="2.586"/>
<path fill="#D6102A" d="M229.867,99.886c0,1.43-1.158,2.588-2.591,2.588c-1.43,0-2.592-1.158-2.592-2.588
	c0-1.426,1.162-2.584,2.592-2.584C228.708,97.302,229.867,98.46,229.867,99.886z"/>
<ellipse fill="#D6102A" cx="227.275" cy="92.991" rx="2.591" ry="2.586"/>
<ellipse fill="#D6102A" cx="227.275" cy="86.097" rx="2.591" ry="2.586"/>
<ellipse fill="#D6102A" cx="234.19" cy="113.679" rx="2.593" ry="2.586"/>
<path fill="#D6102A" d="M236.784,99.886c0,1.43-1.161,2.588-2.593,2.588c-1.431,0-2.594-1.158-2.594-2.588
	c0-1.426,1.163-2.584,2.594-2.584C235.623,97.302,236.784,98.46,236.784,99.886z"/>
<g>
	<path fill="#A0202D" d="M251.124,68.46h1.096c2.023,0,2.74-0.84,2.74-2.521V42.229h5.229v24.297c0,3.867-1.561,6.475-7.336,6.475
		h-1.729V68.46z"/>
	<path fill="#A0202D" d="M267.438,72.579h-5.059l5.607-30.35h6.492l5.607,30.35h-5.06l-0.927-6.725h-5.734L267.438,72.579z
		 M269.125,61.313h4.216l-2.065-13.031h-0.085L269.125,61.313z"/>
	<path fill="#A0202D" d="M292.227,42.229h5.144l-6.366,30.35h-5.229l-6.365-30.35h5.143l3.795,21.061h0.084L292.227,42.229z"/>
	<path fill="#A0202D" d="M300.91,72.579h-5.059l5.608-30.35h6.492l5.607,30.35H308.5l-0.928-6.725h-5.734L300.91,72.579z
		 M302.598,61.313h4.215l-2.066-13.031h-0.084L302.598,61.313z"/>
	<path fill="#D6102A" d="M254.545,79.261v22.279c0,3.068,0.885,5.717,4.469,5.717s4.469-2.648,4.469-5.717V79.261h3.289v22.363
		c0,4.877-2.277,8.408-7.758,8.408s-7.758-3.531-7.758-8.408V79.261H254.545z"/>
	<path fill="#D6102A" d="M282.37,87.079c-0.254-3.111-1.518-5.465-4.68-5.465c-2.529,0-4.174,1.682-4.174,3.994
		c0,6.852,12.227,6.936,12.227,16.689c0,4.834-2.783,7.734-7.801,7.734c-4.764,0-7.631-3.49-7.715-8.576h3.035
		c0.085,3.574,1.771,5.801,5.018,5.801c2.74,0,4.512-1.766,4.512-5.002c0-6.895-12.227-7.693-12.227-16.354
		c0-4.287,2.951-7.063,7.336-7.063s7.251,2.943,7.504,8.24H282.37z"/>
	<path fill="#D6102A" d="M303.279,79.261v2.773h-10.625v10.342h7.841v2.775h-7.841v11.686h11.13v2.775h-14.419V79.261H303.279z"/>
	<path fill="#D6102A" d="M307.24,79.261h7.336c4.891,0,8.348,2.857,8.348,7.861c0,3.404-1.518,6.264-4.891,7.439l5.145,15.051
		h-3.457l-4.891-14.377l-4.301,0.168v14.209h-3.289V79.261z M310.529,92.544h2.867c4.723,0,6.24-1.85,6.24-5.254
		c0-3.406-1.518-5.256-6.24-5.256h-2.867V92.544z"/>
	<path fill="#D6102A" d="M263.905,125.624c-0.253-3.951-1.434-6.979-4.764-6.979c-3.668,0-5.439,3.279-5.439,12.822
		c0,9.541,1.771,12.82,5.439,12.82c3.077,0,4.764-1.682,4.764-4.791v-4.289h-4.132v-2.773h7.421v14.209h-2.109l-0.421-2.271
		c-1.265,1.682-3.036,2.691-5.522,2.691c-5.355,0-8.728-4.119-8.728-15.596s3.372-15.598,8.728-15.598
		c5.607,0,7.631,4.877,8.053,9.754H263.905z"/>
	<path fill="#D6102A" d="M271.493,116.292h7.335c4.891,0,8.349,2.857,8.349,7.861c0,3.404-1.519,6.264-4.891,7.439l5.143,15.051
		h-3.457l-4.891-14.377l-4.3,0.168v14.209h-3.288V116.292z M274.781,129.575h2.866c4.723,0,6.24-1.85,6.24-5.254
		c0-3.406-1.518-5.256-6.24-5.256h-2.866V129.575z"/>
	<path fill="#D6102A" d="M298.642,147.063c-5.144,0-8.601-4.289-8.601-15.596c0-11.309,3.457-15.598,8.601-15.598
		c5.143,0,8.6,4.289,8.6,15.598C307.242,142.774,303.785,147.063,298.642,147.063z M298.642,118.646
		c-2.951,0-5.312,2.521-5.312,12.822c0,10.299,2.36,12.82,5.312,12.82c2.952,0,5.313-2.521,5.313-12.82
		C303.955,121.167,301.594,118.646,298.642,118.646z"/>
	<path fill="#D6102A" d="M314.408,116.292v22.279c0,3.068,0.885,5.717,4.469,5.717s4.469-2.648,4.469-5.717v-22.279h3.289v22.363
		c0,4.877-2.277,8.408-7.758,8.408s-7.758-3.531-7.758-8.408v-22.363H314.408z"/>
	<path fill="#D6102A" d="M330.936,116.292h7.166c4.891,0,8.096,3.279,8.096,8.322c0,5.045-3.205,8.324-8.096,8.324h-3.879v13.705
		h-3.287V116.292z M334.223,130.163h3.457c3.289,0,5.229-1.766,5.229-5.549s-1.939-5.549-5.229-5.549h-3.457V130.163z"/>
	<path fill="#D6102A" d="M263.736,162.487c-0.421-4.793-1.938-6.811-4.511-6.811c-3.837,0-5.523,3.363-5.523,12.822
		c0,9.457,1.687,12.82,5.523,12.82c3.078,0,4.848-2.102,4.933-7.734h3.288c-0.084,6.727-3.035,10.51-8.221,10.51
		c-5.439,0-8.812-4.119-8.812-15.596s3.372-15.596,8.812-15.596c4.511,0,7.293,3.109,7.799,9.584H263.736z"/>
	<path fill="#D6102A" d="M274.781,153.323v13.115h8.938v-13.115h3.288v30.352h-3.288v-14.461h-8.938v14.461h-3.288v-30.352H274.781z
		"/>
</g>
</svg>
